<svg xmlns="http://www.w3.org/2000/svg" xmlns:xlink="http://www.w3.org/1999/xlink" width="2000" zoomAndPan="magnify" viewBox="0 0 1500 1499.999933" height="2000" preserveAspectRatio="xMidYMid meet" version="1.0"><defs><g/><clipPath id="96288172f2"><path d="M 759.667969 649 L 1247.265625 649 L 1247.265625 1204.175781 L 759.667969 1204.175781 Z M 759.667969 649 " clip-rule="nonzero"/></clipPath><clipPath id="abf22c31fd"><rect x="0" width="612" y="0" height="133"/></clipPath></defs><path fill="#fffaeb" d="M 1134.054688 727.199219 C 1134.054688 727.199219 1134.46875 726.375 1135.273438 724.765625 C 1136.078125 723.160156 1137.351562 720.789062 1138.8125 717.710938 C 1141.757812 711.570312 1146.011719 702.53125 1150.292969 690.878906 C 1151.429688 688.007812 1152.480469 684.910156 1153.601562 681.714844 C 1154.652344 678.46875 1155.742188 675.09375 1156.792969 671.570312 C 1157.898438 668.0625 1158.875 664.363281 1159.902344 660.5625 C 1160.824219 656.710938 1161.828125 652.765625 1162.710938 648.667969 C 1166.304688 632.289062 1169.019531 613.738281 1169.964844 593.699219 C 1170.921875 573.683594 1170.070312 552.15625 1166.480469 530.3125 C 1162.933594 508.476562 1156.523438 486.355469 1146.707031 465.773438 C 1136.824219 445.226562 1123.40625 426.421875 1106.492188 411.042969 C 1089.605469 395.625 1069.136719 383.679688 1046.226562 375.4375 C 1044.808594 374.886719 1043.359375 374.410156 1041.898438 373.949219 L 1037.546875 372.484375 C 1034.59375 371.601562 1031.644531 370.710938 1028.652344 369.890625 L 1024.125 368.746094 L 1021.875 368.140625 C 1022.035156 368.167969 1021.109375 367.984375 1022.167969 368.175781 L 1021.835938 368.109375 L 1021.175781 367.976562 L 1019.855469 367.695312 L 1014.570312 366.597656 L 1010.433594 365.867188 L 1008.359375 365.5 L 1006.101562 365.183594 C 1004.582031 364.976562 1003.078125 364.730469 1001.558594 364.546875 C 998.527344 364.226562 995.503906 363.796875 992.464844 363.609375 C 986.386719 363.058594 980.292969 362.898438 974.199219 362.933594 C 949.824219 363.050781 925.484375 367.523438 902.46875 375.230469 C 879.457031 382.914062 857.707031 393.519531 838.058594 405.699219 C 818.359375 417.835938 800.667969 431.425781 785.226562 445.15625 C 777.496094 452.019531 770.304688 458.917969 763.71875 465.757812 C 757.089844 472.566406 751.03125 479.296875 745.597656 485.859375 C 740.125 492.40625 735.167969 498.714844 730.855469 504.761719 C 726.527344 510.792969 722.675781 516.472656 719.433594 521.761719 C 712.871094 532.308594 708.476562 541.164062 705.667969 547.328125 C 704.300781 550.425781 703.242188 552.828125 702.625 554.472656 C 701.953125 556.121094 701.613281 556.964844 701.613281 556.964844 C 701.613281 556.964844 701.644531 556.046875 701.707031 554.28125 C 701.78125 552.5 701.953125 549.867188 702.304688 546.421875 C 703.050781 539.558594 704.652344 529.429688 708.261719 516.863281 C 710.101562 510.609375 712.335938 503.6875 715.222656 496.328125 C 718.136719 488.988281 721.53125 481.113281 725.644531 472.910156 C 729.78125 464.730469 734.515625 456.164062 739.949219 447.375 C 745.398438 438.585938 751.585938 429.625 758.5 420.558594 C 772.347656 402.460938 789.238281 384.050781 809.523438 366.84375 C 829.769531 349.640625 853.507812 333.609375 880.679688 321.046875 C 907.777344 308.488281 938.496094 299.539062 970.90625 296.90625 C 978.988281 296.246094 987.167969 295.941406 995.375 296.09375 C 999.480469 296.101562 1003.585938 296.332031 1007.707031 296.539062 C 1009.757812 296.675781 1011.8125 296.875 1013.871094 297.039062 L 1016.957031 297.3125 L 1020.210938 297.691406 L 1026.75 298.503906 L 1032.089844 299.308594 L 1033.425781 299.515625 L 1034.09375 299.609375 L 1034.417969 299.664062 L 1035.382812 299.839844 L 1038.398438 300.375 L 1044.441406 301.503906 C 1048.460938 302.339844 1052.484375 303.269531 1056.511719 304.222656 C 1060.519531 305.320312 1064.554688 306.261719 1068.523438 307.582031 C 1100.414062 317.214844 1131.375 334.269531 1156.042969 357.679688 C 1168.34375 369.359375 1179.25 382.308594 1188.199219 396.128906 C 1197.257812 409.890625 1204.425781 424.417969 1210.050781 439.046875 C 1221.164062 468.390625 1225.816406 498.0625 1226.089844 525.621094 C 1226.40625 553.230469 1222.46875 578.839844 1216.238281 601.472656 C 1210.027344 624.128906 1201.453125 643.816406 1192.3125 660.195312 C 1183.15625 676.589844 1173.347656 689.636719 1164.605469 699.582031 C 1155.773438 709.507812 1148.097656 716.382812 1142.59375 720.789062 C 1139.894531 723.039062 1137.722656 724.542969 1136.269531 725.609375 C 1134.8125 726.660156 1134.054688 727.199219 1134.054688 727.199219 " fill-opacity="1" fill-rule="nonzero"/><path fill="#fffaeb" d="M 702.957031 447.527344 C 702.957031 447.527344 702.003906 446.675781 700.140625 445.027344 C 698.296875 443.371094 695.496094 440.96875 691.859375 437.882812 C 688.207031 434.804688 683.632812 431.113281 678.210938 426.914062 C 675.488281 424.8125 672.527344 422.625 669.339844 420.351562 C 666.171875 418.058594 662.777344 415.671875 659.132812 413.261719 C 651.832031 408.457031 643.652344 403.382812 634.511719 398.46875 C 625.347656 393.605469 615.324219 388.738281 604.347656 384.539062 C 593.359375 380.367188 581.5625 376.574219 568.945312 373.972656 C 556.328125 371.363281 543.011719 369.683594 529.179688 369.472656 C 515.34375 369.230469 501.027344 370.417969 486.484375 373.128906 C 484.671875 373.496094 482.839844 373.804688 481.027344 374.226562 L 478.28125 374.824219 C 478.355469 374.816406 477.65625 374.9375 478.347656 374.832031 L 477.964844 374.921875 L 477.210938 375.101562 L 475.683594 375.46875 C 473.660156 375.953125 471.632812 376.4375 469.597656 376.925781 C 467.878906 377.417969 466.144531 377.910156 464.410156 378.402344 C 462.714844 378.851562 460.84375 379.492188 459.03125 380.058594 C 457.210938 380.640625 455.371094 381.1875 453.582031 381.863281 C 451.785156 382.5 449.972656 383.152344 448.15625 383.796875 C 446.375 384.496094 444.585938 385.199219 442.789062 385.898438 C 428.554688 391.769531 414.769531 399.144531 402.199219 408.457031 C 389.609375 417.71875 378.113281 428.71875 368.289062 441.34375 C 348.527344 466.480469 335.472656 498.097656 330.660156 531.921875 C 325.769531 565.738281 329.015625 601.542969 339.699219 634.914062 C 342.402344 643.25 345.519531 651.453125 349.085938 659.457031 C 352.632812 667.449219 356.714844 675.207031 361.089844 682.75 C 365.496094 690.28125 370.324219 697.542969 375.542969 704.496094 L 376.507812 705.800781 L 376.992188 706.460938 C 376.539062 705.898438 377.03125 706.519531 377.007812 706.484375 L 377.292969 706.859375 L 379.617188 709.835938 L 381.929688 712.808594 L 383.984375 715.316406 C 386.585938 718.570312 389.632812 722.109375 392.597656 725.5 C 416.527344 752.808594 444.800781 776.671875 474.144531 798.90625 C 503.515625 821.140625 533.839844 841.929688 562.304688 863.199219 C 590.792969 884.417969 617.386719 906.1875 639.90625 928.710938 C 651.167969 939.949219 661.441406 951.316406 670.621094 962.589844 C 679.71875 973.941406 687.828125 985.109375 694.789062 995.992188 C 708.691406 1017.789062 718.367188 1038.050781 724.890625 1055.109375 C 728.238281 1063.601562 730.777344 1071.328125 732.828125 1078.058594 C 733.871094 1081.421875 734.714844 1084.574219 735.53125 1087.4375 C 736.34375 1090.300781 736.917969 1092.949219 737.515625 1095.289062 C 738.722656 1099.964844 739.375 1103.625 739.910156 1106.050781 C 740.402344 1108.492188 740.65625 1109.75 740.65625 1109.75 C 740.65625 1109.75 740.027344 1108.628906 738.820312 1106.449219 C 737.609375 1104.277344 735.882812 1101.03125 733.480469 1096.886719 C 731.132812 1092.71875 728.117188 1087.660156 724.554688 1081.78125 C 722.695312 1078.878906 720.792969 1075.726562 718.605469 1072.457031 C 717.53125 1070.820312 716.425781 1069.125 715.289062 1067.382812 C 714.140625 1065.65625 712.894531 1063.914062 711.652344 1062.101562 C 710.402344 1060.292969 709.128906 1058.449219 707.746094 1056.601562 C 706.394531 1054.742188 705.007812 1052.832031 703.601562 1050.882812 C 702.144531 1048.964844 700.65625 1047 699.128906 1044.996094 C 697.613281 1043 695.964844 1041.019531 694.351562 1038.976562 C 687.730469 1030.867188 680.453125 1022.292969 672.117188 1013.695312 C 655.65625 996.320312 635.402344 978.667969 611.792969 961.332031 C 588.175781 943.960938 561.054688 927.078125 531.375 909.640625 C 501.742188 892.140625 469.453125 874.050781 436.449219 852.492188 C 428.183594 847.113281 419.925781 841.460938 411.660156 835.554688 C 407.53125 832.613281 403.402344 829.574219 399.28125 826.503906 C 395.183594 823.378906 391.078125 820.203125 387.007812 816.933594 C 370.699219 803.894531 354.726562 789.496094 339.785156 773.523438 C 336.054688 769.488281 332.441406 765.527344 328.640625 761.050781 L 325.847656 757.796875 L 321.042969 751.972656 L 320.175781 750.898438 L 319.515625 750.054688 L 318.195312 748.359375 C 311.171875 739.308594 304.640625 729.824219 298.675781 719.984375 C 292.675781 710.152344 287.363281 699.882812 282.582031 689.375 C 277.808594 678.867188 273.648438 668.054688 270.195312 657.019531 C 256.195312 612.972656 252.835938 565.515625 261.125 520.371094 C 265.207031 497.800781 272.296875 475.84375 282.128906 455.402344 C 287.066406 445.1875 292.667969 435.339844 298.9375 426.023438 C 305.214844 416.707031 312.117188 407.894531 319.546875 399.699219 C 327.011719 391.523438 335.003906 383.980469 343.390625 377.117188 C 351.78125 370.25 360.597656 364.132812 369.617188 358.699219 C 387.683594 347.800781 406.734375 340.011719 425.550781 334.667969 C 427.910156 334.03125 430.257812 333.394531 432.605469 332.765625 C 434.953125 332.175781 437.308594 331.667969 439.636719 331.136719 C 441.976562 330.578125 444.316406 330.15625 446.644531 329.710938 C 448.992188 329.28125 451.226562 328.8125 453.703125 328.453125 C 456.121094 328.089844 458.53125 327.714844 460.925781 327.347656 C 463.105469 327.070312 465.132812 326.871094 467.234375 326.640625 L 468.792969 326.472656 L 469.574219 326.386719 L 469.953125 326.347656 C 470.910156 326.195312 470.472656 326.28125 470.789062 326.242188 L 474.21875 325.949219 C 476.484375 325.726562 478.769531 325.621094 481.027344 325.464844 C 490.082031 324.921875 499.015625 324.96875 507.742188 325.441406 C 516.46875 325.886719 524.996094 326.871094 533.246094 328.253906 C 541.5 329.609375 549.472656 331.421875 557.125 333.585938 C 564.785156 335.71875 572.113281 338.214844 579.082031 341.007812 C 593.027344 346.566406 605.628906 352.980469 616.742188 359.988281 C 627.878906 366.925781 637.6875 374.164062 646.199219 381.410156 C 654.742188 388.617188 662.09375 395.691406 668.359375 402.363281 C 671.503906 405.699219 674.390625 408.910156 677.054688 411.972656 C 679.679688 415.070312 682.097656 417.996094 684.277344 420.765625 C 688.679688 426.277344 692.164062 431.136719 694.914062 435.109375 C 697.675781 439.078125 699.648438 442.210938 700.984375 444.3125 C 702.289062 446.4375 702.957031 447.527344 702.957031 447.527344 " fill-opacity="1" fill-rule="nonzero"/><g clip-path="url(#96288172f2)"><path fill="#fffaeb" d="M 1203.757812 727.152344 C 1130.460938 956.578125 844.316406 942.28125 939.867188 898.066406 C 1041.207031 851.179688 1051.476562 722.492188 1008.734375 777.890625 C 955.601562 846.75 891.761719 827.808594 812.664062 913.046875 C 713.1875 1020.25 784.773438 1204.175781 784.773438 1204.175781 C 807.914062 1088.667969 973.507812 1030.082031 1118.511719 934.300781 C 1263.515625 838.523438 1277.054688 497.722656 1203.757812 727.152344 " fill-opacity="1" fill-rule="nonzero"/></g><g transform="matrix(1, 0, 0, 1, 458, 628)"><g clip-path="url(#abf22c31fd)"><g fill="#fffaeb" fill-opacity="0.4"><g transform="translate(0.719988, 93.54853)"><g><path d="M 26.03125 -65.203125 L 56.34375 -63.796875 C 58.019531 -63.742188 59.273438 -63.171875 60.109375 -62.078125 C 60.953125 -60.992188 61.359375 -59.765625 61.328125 -58.390625 C 61.296875 -57.023438 60.84375 -55.828125 59.96875 -54.796875 C 59.101562 -53.773438 57.832031 -53.296875 56.15625 -53.359375 C 52.613281 -53.546875 49.066406 -53.734375 45.515625 -53.921875 C 41.972656 -54.109375 38.398438 -54.234375 34.796875 -54.296875 C 34.984375 -37.628906 36.566406 -21.144531 39.546875 -4.84375 C 39.859375 -3.164062 39.578125 -1.78125 38.703125 -0.6875 C 37.835938 0.394531 36.734375 1.101562 35.390625 1.4375 C 34.054688 1.78125 32.8125 1.65625 31.65625 1.0625 C 30.507812 0.476562 29.785156 -0.648438 29.484375 -2.328125 C 26.242188 -19.554688 24.5625 -37.125 24.4375 -55.03125 C 21.757812 -55.34375 19.144531 -55.4375 16.59375 -55.3125 C 14.050781 -55.1875 12.003906 -54.410156 10.453125 -52.984375 C 9.203125 -51.867188 7.894531 -51.382812 6.53125 -51.53125 C 5.164062 -51.6875 4 -52.257812 3.03125 -53.25 C 2.0625 -54.25 1.53125 -55.398438 1.4375 -56.703125 C 1.351562 -58.015625 1.929688 -59.234375 3.171875 -60.359375 C 5.347656 -62.410156 7.707031 -63.773438 10.25 -64.453125 C 12.800781 -65.140625 15.429688 -65.46875 18.140625 -65.4375 C 20.847656 -65.40625 23.476562 -65.328125 26.03125 -65.203125 Z M 26.03125 -65.203125 "/></g></g></g><g fill="#fffaeb" fill-opacity="0.4"><g transform="translate(91.57513, 93.54853)"><g><path d="M 60.078125 -5.6875 C 60.453125 -4.070312 60.234375 -2.71875 59.421875 -1.625 C 58.609375 -0.539062 57.535156 0.171875 56.203125 0.515625 C 54.867188 0.859375 53.59375 0.75 52.375 0.1875 C 51.164062 -0.375 50.34375 -1.460938 49.90625 -3.078125 C 48.726562 -7.679688 47.453125 -12.3125 46.078125 -16.96875 C 44.710938 -21.632812 43.222656 -26.300781 41.609375 -30.96875 L 40.765625 -33.390625 C 40.140625 -35.066406 39.515625 -36.742188 38.890625 -38.421875 C 38.273438 -40.109375 37.625 -41.757812 36.9375 -43.375 C 35.945312 -45.863281 34.96875 -47.757812 34 -49.0625 C 33.039062 -50.375 31.96875 -51.273438 30.78125 -51.765625 C 29.851562 -52.265625 29.078125 -52.078125 28.453125 -51.203125 C 27.828125 -50.335938 27.144531 -48.566406 26.40625 -45.890625 C 26.34375 -45.515625 26.25 -45.140625 26.125 -44.765625 C 26 -44.398438 25.875 -44.0625 25.75 -43.75 C 24.1875 -39.269531 22.691406 -34.789062 21.265625 -30.3125 C 21.203125 -30.0625 21.15625 -29.84375 21.125 -29.65625 C 21.09375 -29.476562 21.015625 -29.296875 20.890625 -29.109375 L 37.5 -30.96875 C 39.238281 -31.15625 40.539062 -30.765625 41.40625 -29.796875 C 42.28125 -28.835938 42.71875 -27.671875 42.71875 -26.296875 C 42.71875 -24.929688 42.3125 -23.671875 41.5 -22.515625 C 40.695312 -21.367188 39.488281 -20.703125 37.875 -20.515625 L 17.4375 -18.375 C 16.632812 -15.695312 15.828125 -13.035156 15.015625 -10.390625 C 14.210938 -7.753906 13.4375 -5.066406 12.6875 -2.328125 C 12.25 -0.710938 11.390625 0.351562 10.109375 0.875 C 8.835938 1.40625 7.550781 1.484375 6.25 1.109375 C 4.945312 0.742188 3.90625 0.0195312 3.125 -1.0625 C 2.34375 -2.15625 2.203125 -3.507812 2.703125 -5.125 C 4.378906 -11.09375 6.148438 -17.078125 8.015625 -23.078125 C 9.890625 -29.085938 11.851562 -35.046875 13.90625 -40.953125 C 14.394531 -42.503906 14.921875 -44.289062 15.484375 -46.3125 C 16.046875 -48.332031 16.726562 -50.367188 17.53125 -52.421875 C 18.34375 -54.472656 19.351562 -56.335938 20.5625 -58.015625 C 21.78125 -59.703125 23.289062 -60.960938 25.09375 -61.796875 C 26.894531 -62.640625 29.039062 -62.84375 31.53125 -62.40625 C 34.207031 -61.90625 36.507812 -60.863281 38.4375 -59.28125 C 40.363281 -57.695312 41.992188 -55.816406 43.328125 -53.640625 C 44.660156 -51.460938 45.804688 -49.191406 46.765625 -46.828125 C 47.734375 -44.460938 48.59375 -42.253906 49.34375 -40.203125 C 53.570312 -28.703125 57.148438 -17.195312 60.078125 -5.6875 Z M 60.078125 -5.6875 "/></g></g></g><g fill="#fffaeb" fill-opacity="0.4"><g transform="translate(182.150449, 93.54853)"><g><path d="M 52.140625 -15.484375 C 52.453125 -11.878906 51.921875 -8.613281 50.546875 -5.6875 C 49.179688 -2.769531 47.238281 -0.285156 44.71875 1.765625 C 42.207031 3.816406 39.394531 5.414062 36.28125 6.5625 C 33.175781 7.71875 29.957031 8.359375 26.625 8.484375 C 23.300781 8.609375 20.175781 8.207031 17.25 7.28125 C 15.382812 6.65625 14.25 5.546875 13.84375 3.953125 C 13.445312 2.367188 13.585938 0.925781 14.265625 -0.375 C 12.710938 -0.875 11.71875 -2.023438 11.28125 -3.828125 C 7.113281 -20.867188 4.160156 -37.90625 2.421875 -54.9375 C 2.234375 -56.625 2.710938 -57.976562 3.859375 -59 C 5.015625 -60.03125 6.460938 -60.390625 8.203125 -60.078125 C 11.378906 -61.691406 14.769531 -63.007812 18.375 -64.03125 C 21.976562 -65.0625 25.617188 -65.140625 29.296875 -64.265625 C 32.585938 -63.460938 35.507812 -61.878906 38.0625 -59.515625 C 40.613281 -57.148438 42.289062 -54.472656 43.09375 -51.484375 C 43.84375 -48.628906 43.765625 -45.769531 42.859375 -42.90625 C 41.960938 -40.050781 40.363281 -37.472656 38.0625 -35.171875 C 38.988281 -34.796875 39.765625 -34.390625 40.390625 -33.953125 C 43.804688 -31.898438 46.554688 -29.222656 48.640625 -25.921875 C 50.722656 -22.628906 51.890625 -19.148438 52.140625 -15.484375 Z M 25.65625 -54.296875 C 23.539062 -54.597656 21.441406 -54.390625 19.359375 -53.671875 C 17.273438 -52.960938 15.238281 -52.082031 13.25 -51.03125 C 13.5625 -48.914062 13.851562 -46.800781 14.125 -44.6875 C 14.40625 -42.570312 14.703125 -40.425781 15.015625 -38.25 C 17.316406 -38.3125 19.570312 -38.445312 21.78125 -38.65625 C 23.988281 -38.875 26.054688 -39.484375 27.984375 -40.484375 C 29.847656 -41.484375 31.242188 -42.742188 32.171875 -44.265625 C 33.109375 -45.785156 33.359375 -47.257812 32.921875 -48.6875 C 32.617188 -50.125 31.78125 -51.367188 30.40625 -52.421875 C 29.039062 -53.484375 27.457031 -54.109375 25.65625 -54.296875 Z M 20.796875 -2.515625 C 23.035156 -1.953125 25.429688 -1.78125 27.984375 -2 C 30.535156 -2.21875 32.898438 -2.851562 35.078125 -3.90625 C 37.253906 -4.96875 38.992188 -6.445312 40.296875 -8.34375 C 41.597656 -10.238281 42.097656 -12.554688 41.796875 -15.296875 C 41.484375 -18.097656 40.515625 -20.367188 38.890625 -22.109375 C 37.273438 -23.847656 35.269531 -25.148438 32.875 -26.015625 C 30.488281 -26.890625 27.972656 -27.390625 25.328125 -27.515625 C 22.679688 -27.640625 20.144531 -27.453125 17.71875 -26.953125 C 17.40625 -26.953125 17.160156 -26.921875 16.984375 -26.859375 C 18.222656 -20.148438 19.710938 -13.375 21.453125 -6.53125 C 21.828125 -4.976562 21.609375 -3.640625 20.796875 -2.515625 Z M 20.796875 -2.515625 "/></g></g></g><g fill="#fffaeb" fill-opacity="0.4"><g transform="translate(264.796983, 93.54853)"><g><path d="M 52.140625 -15.484375 C 52.453125 -11.878906 51.921875 -8.613281 50.546875 -5.6875 C 49.179688 -2.769531 47.238281 -0.285156 44.71875 1.765625 C 42.207031 3.816406 39.394531 5.414062 36.28125 6.5625 C 33.175781 7.71875 29.957031 8.359375 26.625 8.484375 C 23.300781 8.609375 20.175781 8.207031 17.25 7.28125 C 15.382812 6.65625 14.25 5.546875 13.84375 3.953125 C 13.445312 2.367188 13.585938 0.925781 14.265625 -0.375 C 12.710938 -0.875 11.71875 -2.023438 11.28125 -3.828125 C 7.113281 -20.867188 4.160156 -37.90625 2.421875 -54.9375 C 2.234375 -56.625 2.710938 -57.976562 3.859375 -59 C 5.015625 -60.03125 6.460938 -60.390625 8.203125 -60.078125 C 11.378906 -61.691406 14.769531 -63.007812 18.375 -64.03125 C 21.976562 -65.0625 25.617188 -65.140625 29.296875 -64.265625 C 32.585938 -63.460938 35.507812 -61.878906 38.0625 -59.515625 C 40.613281 -57.148438 42.289062 -54.472656 43.09375 -51.484375 C 43.84375 -48.628906 43.765625 -45.769531 42.859375 -42.90625 C 41.960938 -40.050781 40.363281 -37.472656 38.0625 -35.171875 C 38.988281 -34.796875 39.765625 -34.390625 40.390625 -33.953125 C 43.804688 -31.898438 46.554688 -29.222656 48.640625 -25.921875 C 50.722656 -22.628906 51.890625 -19.148438 52.140625 -15.484375 Z M 25.65625 -54.296875 C 23.539062 -54.597656 21.441406 -54.390625 19.359375 -53.671875 C 17.273438 -52.960938 15.238281 -52.082031 13.25 -51.03125 C 13.5625 -48.914062 13.851562 -46.800781 14.125 -44.6875 C 14.40625 -42.570312 14.703125 -40.425781 15.015625 -38.25 C 17.316406 -38.3125 19.570312 -38.445312 21.78125 -38.65625 C 23.988281 -38.875 26.054688 -39.484375 27.984375 -40.484375 C 29.847656 -41.484375 31.242188 -42.742188 32.171875 -44.265625 C 33.109375 -45.785156 33.359375 -47.257812 32.921875 -48.6875 C 32.617188 -50.125 31.78125 -51.367188 30.40625 -52.421875 C 29.039062 -53.484375 27.457031 -54.109375 25.65625 -54.296875 Z M 20.796875 -2.515625 C 23.035156 -1.953125 25.429688 -1.78125 27.984375 -2 C 30.535156 -2.21875 32.898438 -2.851562 35.078125 -3.90625 C 37.253906 -4.96875 38.992188 -6.445312 40.296875 -8.34375 C 41.597656 -10.238281 42.097656 -12.554688 41.796875 -15.296875 C 41.484375 -18.097656 40.515625 -20.367188 38.890625 -22.109375 C 37.273438 -23.847656 35.269531 -25.148438 32.875 -26.015625 C 30.488281 -26.890625 27.972656 -27.390625 25.328125 -27.515625 C 22.679688 -27.640625 20.144531 -27.453125 17.71875 -26.953125 C 17.40625 -26.953125 17.160156 -26.921875 16.984375 -26.859375 C 18.222656 -20.148438 19.710938 -13.375 21.453125 -6.53125 C 21.828125 -4.976562 21.609375 -3.640625 20.796875 -2.515625 Z M 20.796875 -2.515625 "/></g></g></g><g fill="#fffaeb" fill-opacity="0.4"><g transform="translate(347.443561, 93.54853)"><g><path d="M 60.078125 -5.6875 C 60.453125 -4.070312 60.234375 -2.71875 59.421875 -1.625 C 58.609375 -0.539062 57.535156 0.171875 56.203125 0.515625 C 54.867188 0.859375 53.59375 0.75 52.375 0.1875 C 51.164062 -0.375 50.34375 -1.460938 49.90625 -3.078125 C 48.726562 -7.679688 47.453125 -12.3125 46.078125 -16.96875 C 44.710938 -21.632812 43.222656 -26.300781 41.609375 -30.96875 L 40.765625 -33.390625 C 40.140625 -35.066406 39.515625 -36.742188 38.890625 -38.421875 C 38.273438 -40.109375 37.625 -41.757812 36.9375 -43.375 C 35.945312 -45.863281 34.96875 -47.757812 34 -49.0625 C 33.039062 -50.375 31.96875 -51.273438 30.78125 -51.765625 C 29.851562 -52.265625 29.078125 -52.078125 28.453125 -51.203125 C 27.828125 -50.335938 27.144531 -48.566406 26.40625 -45.890625 C 26.34375 -45.515625 26.25 -45.140625 26.125 -44.765625 C 26 -44.398438 25.875 -44.0625 25.75 -43.75 C 24.1875 -39.269531 22.691406 -34.789062 21.265625 -30.3125 C 21.203125 -30.0625 21.15625 -29.84375 21.125 -29.65625 C 21.09375 -29.476562 21.015625 -29.296875 20.890625 -29.109375 L 37.5 -30.96875 C 39.238281 -31.15625 40.539062 -30.765625 41.40625 -29.796875 C 42.28125 -28.835938 42.71875 -27.671875 42.71875 -26.296875 C 42.71875 -24.929688 42.3125 -23.671875 41.5 -22.515625 C 40.695312 -21.367188 39.488281 -20.703125 37.875 -20.515625 L 17.4375 -18.375 C 16.632812 -15.695312 15.828125 -13.035156 15.015625 -10.390625 C 14.210938 -7.753906 13.4375 -5.066406 12.6875 -2.328125 C 12.25 -0.710938 11.390625 0.351562 10.109375 0.875 C 8.835938 1.40625 7.550781 1.484375 6.25 1.109375 C 4.945312 0.742188 3.90625 0.0195312 3.125 -1.0625 C 2.34375 -2.15625 2.203125 -3.507812 2.703125 -5.125 C 4.378906 -11.09375 6.148438 -17.078125 8.015625 -23.078125 C 9.890625 -29.085938 11.851562 -35.046875 13.90625 -40.953125 C 14.394531 -42.503906 14.921875 -44.289062 15.484375 -46.3125 C 16.046875 -48.332031 16.726562 -50.367188 17.53125 -52.421875 C 18.34375 -54.472656 19.351562 -56.335938 20.5625 -58.015625 C 21.78125 -59.703125 23.289062 -60.960938 25.09375 -61.796875 C 26.894531 -62.640625 29.039062 -62.84375 31.53125 -62.40625 C 34.207031 -61.90625 36.507812 -60.863281 38.4375 -59.28125 C 40.363281 -57.695312 41.992188 -55.816406 43.328125 -53.640625 C 44.660156 -51.460938 45.804688 -49.191406 46.765625 -46.828125 C 47.734375 -44.460938 48.59375 -42.253906 49.34375 -40.203125 C 53.570312 -28.703125 57.148438 -17.195312 60.078125 -5.6875 Z M 60.078125 -5.6875 "/></g></g></g><g fill="#fffaeb" fill-opacity="0.4"><g transform="translate(438.01888, 93.54853)"><g><path d="M 52.140625 -15.484375 C 52.453125 -11.878906 51.921875 -8.613281 50.546875 -5.6875 C 49.179688 -2.769531 47.238281 -0.285156 44.71875 1.765625 C 42.207031 3.816406 39.394531 5.414062 36.28125 6.5625 C 33.175781 7.71875 29.957031 8.359375 26.625 8.484375 C 23.300781 8.609375 20.175781 8.207031 17.25 7.28125 C 15.382812 6.65625 14.25 5.546875 13.84375 3.953125 C 13.445312 2.367188 13.585938 0.925781 14.265625 -0.375 C 12.710938 -0.875 11.71875 -2.023438 11.28125 -3.828125 C 7.113281 -20.867188 4.160156 -37.90625 2.421875 -54.9375 C 2.234375 -56.625 2.710938 -57.976562 3.859375 -59 C 5.015625 -60.03125 6.460938 -60.390625 8.203125 -60.078125 C 11.378906 -61.691406 14.769531 -63.007812 18.375 -64.03125 C 21.976562 -65.0625 25.617188 -65.140625 29.296875 -64.265625 C 32.585938 -63.460938 35.507812 -61.878906 38.0625 -59.515625 C 40.613281 -57.148438 42.289062 -54.472656 43.09375 -51.484375 C 43.84375 -48.628906 43.765625 -45.769531 42.859375 -42.90625 C 41.960938 -40.050781 40.363281 -37.472656 38.0625 -35.171875 C 38.988281 -34.796875 39.765625 -34.390625 40.390625 -33.953125 C 43.804688 -31.898438 46.554688 -29.222656 48.640625 -25.921875 C 50.722656 -22.628906 51.890625 -19.148438 52.140625 -15.484375 Z M 25.65625 -54.296875 C 23.539062 -54.597656 21.441406 -54.390625 19.359375 -53.671875 C 17.273438 -52.960938 15.238281 -52.082031 13.25 -51.03125 C 13.5625 -48.914062 13.851562 -46.800781 14.125 -44.6875 C 14.40625 -42.570312 14.703125 -40.425781 15.015625 -38.25 C 17.316406 -38.3125 19.570312 -38.445312 21.78125 -38.65625 C 23.988281 -38.875 26.054688 -39.484375 27.984375 -40.484375 C 29.847656 -41.484375 31.242188 -42.742188 32.171875 -44.265625 C 33.109375 -45.785156 33.359375 -47.257812 32.921875 -48.6875 C 32.617188 -50.125 31.78125 -51.367188 30.40625 -52.421875 C 29.039062 -53.484375 27.457031 -54.109375 25.65625 -54.296875 Z M 20.796875 -2.515625 C 23.035156 -1.953125 25.429688 -1.78125 27.984375 -2 C 30.535156 -2.21875 32.898438 -2.851562 35.078125 -3.90625 C 37.253906 -4.96875 38.992188 -6.445312 40.296875 -8.34375 C 41.597656 -10.238281 42.097656 -12.554688 41.796875 -15.296875 C 41.484375 -18.097656 40.515625 -20.367188 38.890625 -22.109375 C 37.273438 -23.847656 35.269531 -25.148438 32.875 -26.015625 C 30.488281 -26.890625 27.972656 -27.390625 25.328125 -27.515625 C 22.679688 -27.640625 20.144531 -27.453125 17.71875 -26.953125 C 17.40625 -26.953125 17.160156 -26.921875 16.984375 -26.859375 C 18.222656 -20.148438 19.710938 -13.375 21.453125 -6.53125 C 21.828125 -4.976562 21.609375 -3.640625 20.796875 -2.515625 Z M 20.796875 -2.515625 "/></g></g></g><g fill="#fffaeb" fill-opacity="0.4"><g transform="translate(520.665414, 93.54853)"><g><path d="M 60.078125 -5.6875 C 60.453125 -4.070312 60.234375 -2.71875 59.421875 -1.625 C 58.609375 -0.539062 57.535156 0.171875 56.203125 0.515625 C 54.867188 0.859375 53.59375 0.75 52.375 0.1875 C 51.164062 -0.375 50.34375 -1.460938 49.90625 -3.078125 C 48.726562 -7.679688 47.453125 -12.3125 46.078125 -16.96875 C 44.710938 -21.632812 43.222656 -26.300781 41.609375 -30.96875 L 40.765625 -33.390625 C 40.140625 -35.066406 39.515625 -36.742188 38.890625 -38.421875 C 38.273438 -40.109375 37.625 -41.757812 36.9375 -43.375 C 35.945312 -45.863281 34.96875 -47.757812 34 -49.0625 C 33.039062 -50.375 31.96875 -51.273438 30.78125 -51.765625 C 29.851562 -52.265625 29.078125 -52.078125 28.453125 -51.203125 C 27.828125 -50.335938 27.144531 -48.566406 26.40625 -45.890625 C 26.34375 -45.515625 26.25 -45.140625 26.125 -44.765625 C 26 -44.398438 25.875 -44.0625 25.75 -43.75 C 24.1875 -39.269531 22.691406 -34.789062 21.265625 -30.3125 C 21.203125 -30.0625 21.15625 -29.84375 21.125 -29.65625 C 21.09375 -29.476562 21.015625 -29.296875 20.890625 -29.109375 L 37.5 -30.96875 C 39.238281 -31.15625 40.539062 -30.765625 41.40625 -29.796875 C 42.28125 -28.835938 42.71875 -27.671875 42.71875 -26.296875 C 42.71875 -24.929688 42.3125 -23.671875 41.5 -22.515625 C 40.695312 -21.367188 39.488281 -20.703125 37.875 -20.515625 L 17.4375 -18.375 C 16.632812 -15.695312 15.828125 -13.035156 15.015625 -10.390625 C 14.210938 -7.753906 13.4375 -5.066406 12.6875 -2.328125 C 12.25 -0.710938 11.390625 0.351562 10.109375 0.875 C 8.835938 1.40625 7.550781 1.484375 6.25 1.109375 C 4.945312 0.742188 3.90625 0.0195312 3.125 -1.0625 C 2.34375 -2.15625 2.203125 -3.507812 2.703125 -5.125 C 4.378906 -11.09375 6.148438 -17.078125 8.015625 -23.078125 C 9.890625 -29.085938 11.851562 -35.046875 13.90625 -40.953125 C 14.394531 -42.503906 14.921875 -44.289062 15.484375 -46.3125 C 16.046875 -48.332031 16.726562 -50.367188 17.53125 -52.421875 C 18.34375 -54.472656 19.351562 -56.335938 20.5625 -58.015625 C 21.78125 -59.703125 23.289062 -60.960938 25.09375 -61.796875 C 26.894531 -62.640625 29.039062 -62.84375 31.53125 -62.40625 C 34.207031 -61.90625 36.507812 -60.863281 38.4375 -59.28125 C 40.363281 -57.695312 41.992188 -55.816406 43.328125 -53.640625 C 44.660156 -51.460938 45.804688 -49.191406 46.765625 -46.828125 C 47.734375 -44.460938 48.59375 -42.253906 49.34375 -40.203125 C 53.570312 -28.703125 57.148438 -17.195312 60.078125 -5.6875 Z M 60.078125 -5.6875 "/></g></g></g><g fill="#fffaeb" fill-opacity="1"><g transform="translate(0.719988, 93.54853)"><g><path d="M 26.03125 -65.203125 L 56.34375 -63.796875 C 58.019531 -63.742188 59.273438 -63.171875 60.109375 -62.078125 C 60.953125 -60.992188 61.359375 -59.765625 61.328125 -58.390625 C 61.296875 -57.023438 60.84375 -55.828125 59.96875 -54.796875 C 59.101562 -53.773438 57.832031 -53.296875 56.15625 -53.359375 C 52.613281 -53.546875 49.066406 -53.734375 45.515625 -53.921875 C 41.972656 -54.109375 38.398438 -54.234375 34.796875 -54.296875 C 34.984375 -37.628906 36.566406 -21.144531 39.546875 -4.84375 C 39.859375 -3.164062 39.578125 -1.78125 38.703125 -0.6875 C 37.835938 0.394531 36.734375 1.101562 35.390625 1.4375 C 34.054688 1.78125 32.8125 1.65625 31.65625 1.0625 C 30.507812 0.476562 29.785156 -0.648438 29.484375 -2.328125 C 26.242188 -19.554688 24.5625 -37.125 24.4375 -55.03125 C 21.757812 -55.34375 19.144531 -55.4375 16.59375 -55.3125 C 14.050781 -55.1875 12.003906 -54.410156 10.453125 -52.984375 C 9.203125 -51.867188 7.894531 -51.382812 6.53125 -51.53125 C 5.164062 -51.6875 4 -52.257812 3.03125 -53.25 C 2.0625 -54.25 1.53125 -55.398438 1.4375 -56.703125 C 1.351562 -58.015625 1.929688 -59.234375 3.171875 -60.359375 C 5.347656 -62.410156 7.707031 -63.773438 10.25 -64.453125 C 12.800781 -65.140625 15.429688 -65.46875 18.140625 -65.4375 C 20.847656 -65.40625 23.476562 -65.328125 26.03125 -65.203125 Z M 26.03125 -65.203125 "/></g></g></g><g fill="#fffaeb" fill-opacity="1"><g transform="translate(91.57513, 93.54853)"><g><path d="M 60.078125 -5.6875 C 60.453125 -4.070312 60.234375 -2.71875 59.421875 -1.625 C 58.609375 -0.539062 57.535156 0.171875 56.203125 0.515625 C 54.867188 0.859375 53.59375 0.75 52.375 0.1875 C 51.164062 -0.375 50.34375 -1.460938 49.90625 -3.078125 C 48.726562 -7.679688 47.453125 -12.3125 46.078125 -16.96875 C 44.710938 -21.632812 43.222656 -26.300781 41.609375 -30.96875 L 40.765625 -33.390625 C 40.140625 -35.066406 39.515625 -36.742188 38.890625 -38.421875 C 38.273438 -40.109375 37.625 -41.757812 36.9375 -43.375 C 35.945312 -45.863281 34.96875 -47.757812 34 -49.0625 C 33.039062 -50.375 31.96875 -51.273438 30.78125 -51.765625 C 29.851562 -52.265625 29.078125 -52.078125 28.453125 -51.203125 C 27.828125 -50.335938 27.144531 -48.566406 26.40625 -45.890625 C 26.34375 -45.515625 26.25 -45.140625 26.125 -44.765625 C 26 -44.398438 25.875 -44.0625 25.75 -43.75 C 24.1875 -39.269531 22.691406 -34.789062 21.265625 -30.3125 C 21.203125 -30.0625 21.15625 -29.84375 21.125 -29.65625 C 21.09375 -29.476562 21.015625 -29.296875 20.890625 -29.109375 L 37.5 -30.96875 C 39.238281 -31.15625 40.539062 -30.765625 41.40625 -29.796875 C 42.28125 -28.835938 42.71875 -27.671875 42.71875 -26.296875 C 42.71875 -24.929688 42.3125 -23.671875 41.5 -22.515625 C 40.695312 -21.367188 39.488281 -20.703125 37.875 -20.515625 L 17.4375 -18.375 C 16.632812 -15.695312 15.828125 -13.035156 15.015625 -10.390625 C 14.210938 -7.753906 13.4375 -5.066406 12.6875 -2.328125 C 12.25 -0.710938 11.390625 0.351562 10.109375 0.875 C 8.835938 1.40625 7.550781 1.484375 6.25 1.109375 C 4.945312 0.742188 3.90625 0.0195312 3.125 -1.0625 C 2.34375 -2.15625 2.203125 -3.507812 2.703125 -5.125 C 4.378906 -11.09375 6.148438 -17.078125 8.015625 -23.078125 C 9.890625 -29.085938 11.851562 -35.046875 13.90625 -40.953125 C 14.394531 -42.503906 14.921875 -44.289062 15.484375 -46.3125 C 16.046875 -48.332031 16.726562 -50.367188 17.53125 -52.421875 C 18.34375 -54.472656 19.351562 -56.335938 20.5625 -58.015625 C 21.78125 -59.703125 23.289062 -60.960938 25.09375 -61.796875 C 26.894531 -62.640625 29.039062 -62.84375 31.53125 -62.40625 C 34.207031 -61.90625 36.507812 -60.863281 38.4375 -59.28125 C 40.363281 -57.695312 41.992188 -55.816406 43.328125 -53.640625 C 44.660156 -51.460938 45.804688 -49.191406 46.765625 -46.828125 C 47.734375 -44.460938 48.59375 -42.253906 49.34375 -40.203125 C 53.570312 -28.703125 57.148438 -17.195312 60.078125 -5.6875 Z M 60.078125 -5.6875 "/></g></g></g><g fill="#fffaeb" fill-opacity="1"><g transform="translate(182.150449, 93.54853)"><g><path d="M 52.140625 -15.484375 C 52.453125 -11.878906 51.921875 -8.613281 50.546875 -5.6875 C 49.179688 -2.769531 47.238281 -0.285156 44.71875 1.765625 C 42.207031 3.816406 39.394531 5.414062 36.28125 6.5625 C 33.175781 7.71875 29.957031 8.359375 26.625 8.484375 C 23.300781 8.609375 20.175781 8.207031 17.25 7.28125 C 15.382812 6.65625 14.25 5.546875 13.84375 3.953125 C 13.445312 2.367188 13.585938 0.925781 14.265625 -0.375 C 12.710938 -0.875 11.71875 -2.023438 11.28125 -3.828125 C 7.113281 -20.867188 4.160156 -37.90625 2.421875 -54.9375 C 2.234375 -56.625 2.710938 -57.976562 3.859375 -59 C 5.015625 -60.03125 6.460938 -60.390625 8.203125 -60.078125 C 11.378906 -61.691406 14.769531 -63.007812 18.375 -64.03125 C 21.976562 -65.0625 25.617188 -65.140625 29.296875 -64.265625 C 32.585938 -63.460938 35.507812 -61.878906 38.0625 -59.515625 C 40.613281 -57.148438 42.289062 -54.472656 43.09375 -51.484375 C 43.84375 -48.628906 43.765625 -45.769531 42.859375 -42.90625 C 41.960938 -40.050781 40.363281 -37.472656 38.0625 -35.171875 C 38.988281 -34.796875 39.765625 -34.390625 40.390625 -33.953125 C 43.804688 -31.898438 46.554688 -29.222656 48.640625 -25.921875 C 50.722656 -22.628906 51.890625 -19.148438 52.140625 -15.484375 Z M 25.65625 -54.296875 C 23.539062 -54.597656 21.441406 -54.390625 19.359375 -53.671875 C 17.273438 -52.960938 15.238281 -52.082031 13.25 -51.03125 C 13.5625 -48.914062 13.851562 -46.800781 14.125 -44.6875 C 14.40625 -42.570312 14.703125 -40.425781 15.015625 -38.25 C 17.316406 -38.3125 19.570312 -38.445312 21.78125 -38.65625 C 23.988281 -38.875 26.054688 -39.484375 27.984375 -40.484375 C 29.847656 -41.484375 31.242188 -42.742188 32.171875 -44.265625 C 33.109375 -45.785156 33.359375 -47.257812 32.921875 -48.6875 C 32.617188 -50.125 31.78125 -51.367188 30.40625 -52.421875 C 29.039062 -53.484375 27.457031 -54.109375 25.65625 -54.296875 Z M 20.796875 -2.515625 C 23.035156 -1.953125 25.429688 -1.78125 27.984375 -2 C 30.535156 -2.21875 32.898438 -2.851562 35.078125 -3.90625 C 37.253906 -4.96875 38.992188 -6.445312 40.296875 -8.34375 C 41.597656 -10.238281 42.097656 -12.554688 41.796875 -15.296875 C 41.484375 -18.097656 40.515625 -20.367188 38.890625 -22.109375 C 37.273438 -23.847656 35.269531 -25.148438 32.875 -26.015625 C 30.488281 -26.890625 27.972656 -27.390625 25.328125 -27.515625 C 22.679688 -27.640625 20.144531 -27.453125 17.71875 -26.953125 C 17.40625 -26.953125 17.160156 -26.921875 16.984375 -26.859375 C 18.222656 -20.148438 19.710938 -13.375 21.453125 -6.53125 C 21.828125 -4.976562 21.609375 -3.640625 20.796875 -2.515625 Z M 20.796875 -2.515625 "/></g></g></g><g fill="#fffaeb" fill-opacity="1"><g transform="translate(264.796983, 93.54853)"><g><path d="M 52.140625 -15.484375 C 52.453125 -11.878906 51.921875 -8.613281 50.546875 -5.6875 C 49.179688 -2.769531 47.238281 -0.285156 44.71875 1.765625 C 42.207031 3.816406 39.394531 5.414062 36.28125 6.5625 C 33.175781 7.71875 29.957031 8.359375 26.625 8.484375 C 23.300781 8.609375 20.175781 8.207031 17.25 7.28125 C 15.382812 6.65625 14.25 5.546875 13.84375 3.953125 C 13.445312 2.367188 13.585938 0.925781 14.265625 -0.375 C 12.710938 -0.875 11.71875 -2.023438 11.28125 -3.828125 C 7.113281 -20.867188 4.160156 -37.90625 2.421875 -54.9375 C 2.234375 -56.625 2.710938 -57.976562 3.859375 -59 C 5.015625 -60.03125 6.460938 -60.390625 8.203125 -60.078125 C 11.378906 -61.691406 14.769531 -63.007812 18.375 -64.03125 C 21.976562 -65.0625 25.617188 -65.140625 29.296875 -64.265625 C 32.585938 -63.460938 35.507812 -61.878906 38.0625 -59.515625 C 40.613281 -57.148438 42.289062 -54.472656 43.09375 -51.484375 C 43.84375 -48.628906 43.765625 -45.769531 42.859375 -42.90625 C 41.960938 -40.050781 40.363281 -37.472656 38.0625 -35.171875 C 38.988281 -34.796875 39.765625 -34.390625 40.390625 -33.953125 C 43.804688 -31.898438 46.554688 -29.222656 48.640625 -25.921875 C 50.722656 -22.628906 51.890625 -19.148438 52.140625 -15.484375 Z M 25.65625 -54.296875 C 23.539062 -54.597656 21.441406 -54.390625 19.359375 -53.671875 C 17.273438 -52.960938 15.238281 -52.082031 13.25 -51.03125 C 13.5625 -48.914062 13.851562 -46.800781 14.125 -44.6875 C 14.40625 -42.570312 14.703125 -40.425781 15.015625 -38.25 C 17.316406 -38.3125 19.570312 -38.445312 21.78125 -38.65625 C 23.988281 -38.875 26.054688 -39.484375 27.984375 -40.484375 C 29.847656 -41.484375 31.242188 -42.742188 32.171875 -44.265625 C 33.109375 -45.785156 33.359375 -47.257812 32.921875 -48.6875 C 32.617188 -50.125 31.78125 -51.367188 30.40625 -52.421875 C 29.039062 -53.484375 27.457031 -54.109375 25.65625 -54.296875 Z M 20.796875 -2.515625 C 23.035156 -1.953125 25.429688 -1.78125 27.984375 -2 C 30.535156 -2.21875 32.898438 -2.851562 35.078125 -3.90625 C 37.253906 -4.96875 38.992188 -6.445312 40.296875 -8.34375 C 41.597656 -10.238281 42.097656 -12.554688 41.796875 -15.296875 C 41.484375 -18.097656 40.515625 -20.367188 38.890625 -22.109375 C 37.273438 -23.847656 35.269531 -25.148438 32.875 -26.015625 C 30.488281 -26.890625 27.972656 -27.390625 25.328125 -27.515625 C 22.679688 -27.640625 20.144531 -27.453125 17.71875 -26.953125 C 17.40625 -26.953125 17.160156 -26.921875 16.984375 -26.859375 C 18.222656 -20.148438 19.710938 -13.375 21.453125 -6.53125 C 21.828125 -4.976562 21.609375 -3.640625 20.796875 -2.515625 Z M 20.796875 -2.515625 "/></g></g></g><g fill="#fffaeb" fill-opacity="1"><g transform="translate(347.443561, 93.54853)"><g><path d="M 60.078125 -5.6875 C 60.453125 -4.070312 60.234375 -2.71875 59.421875 -1.625 C 58.609375 -0.539062 57.535156 0.171875 56.203125 0.515625 C 54.867188 0.859375 53.59375 0.75 52.375 0.1875 C 51.164062 -0.375 50.34375 -1.460938 49.90625 -3.078125 C 48.726562 -7.679688 47.453125 -12.3125 46.078125 -16.96875 C 44.710938 -21.632812 43.222656 -26.300781 41.609375 -30.96875 L 40.765625 -33.390625 C 40.140625 -35.066406 39.515625 -36.742188 38.890625 -38.421875 C 38.273438 -40.109375 37.625 -41.757812 36.9375 -43.375 C 35.945312 -45.863281 34.96875 -47.757812 34 -49.0625 C 33.039062 -50.375 31.96875 -51.273438 30.78125 -51.765625 C 29.851562 -52.265625 29.078125 -52.078125 28.453125 -51.203125 C 27.828125 -50.335938 27.144531 -48.566406 26.40625 -45.890625 C 26.34375 -45.515625 26.25 -45.140625 26.125 -44.765625 C 26 -44.398438 25.875 -44.0625 25.75 -43.75 C 24.1875 -39.269531 22.691406 -34.789062 21.265625 -30.3125 C 21.203125 -30.0625 21.15625 -29.84375 21.125 -29.65625 C 21.09375 -29.476562 21.015625 -29.296875 20.890625 -29.109375 L 37.5 -30.96875 C 39.238281 -31.15625 40.539062 -30.765625 41.40625 -29.796875 C 42.28125 -28.835938 42.71875 -27.671875 42.71875 -26.296875 C 42.71875 -24.929688 42.3125 -23.671875 41.5 -22.515625 C 40.695312 -21.367188 39.488281 -20.703125 37.875 -20.515625 L 17.4375 -18.375 C 16.632812 -15.695312 15.828125 -13.035156 15.015625 -10.390625 C 14.210938 -7.753906 13.4375 -5.066406 12.6875 -2.328125 C 12.25 -0.710938 11.390625 0.351562 10.109375 0.875 C 8.835938 1.40625 7.550781 1.484375 6.25 1.109375 C 4.945312 0.742188 3.90625 0.0195312 3.125 -1.0625 C 2.34375 -2.15625 2.203125 -3.507812 2.703125 -5.125 C 4.378906 -11.09375 6.148438 -17.078125 8.015625 -23.078125 C 9.890625 -29.085938 11.851562 -35.046875 13.90625 -40.953125 C 14.394531 -42.503906 14.921875 -44.289062 15.484375 -46.3125 C 16.046875 -48.332031 16.726562 -50.367188 17.53125 -52.421875 C 18.34375 -54.472656 19.351562 -56.335938 20.5625 -58.015625 C 21.78125 -59.703125 23.289062 -60.960938 25.09375 -61.796875 C 26.894531 -62.640625 29.039062 -62.84375 31.53125 -62.40625 C 34.207031 -61.90625 36.507812 -60.863281 38.4375 -59.28125 C 40.363281 -57.695312 41.992188 -55.816406 43.328125 -53.640625 C 44.660156 -51.460938 45.804688 -49.191406 46.765625 -46.828125 C 47.734375 -44.460938 48.59375 -42.253906 49.34375 -40.203125 C 53.570312 -28.703125 57.148438 -17.195312 60.078125 -5.6875 Z M 60.078125 -5.6875 "/></g></g></g><g fill="#fffaeb" fill-opacity="1"><g transform="translate(438.01888, 93.54853)"><g><path d="M 52.140625 -15.484375 C 52.453125 -11.878906 51.921875 -8.613281 50.546875 -5.6875 C 49.179688 -2.769531 47.238281 -0.285156 44.71875 1.765625 C 42.207031 3.816406 39.394531 5.414062 36.28125 6.5625 C 33.175781 7.71875 29.957031 8.359375 26.625 8.484375 C 23.300781 8.609375 20.175781 8.207031 17.25 7.28125 C 15.382812 6.65625 14.25 5.546875 13.84375 3.953125 C 13.445312 2.367188 13.585938 0.925781 14.265625 -0.375 C 12.710938 -0.875 11.71875 -2.023438 11.28125 -3.828125 C 7.113281 -20.867188 4.160156 -37.90625 2.421875 -54.9375 C 2.234375 -56.625 2.710938 -57.976562 3.859375 -59 C 5.015625 -60.03125 6.460938 -60.390625 8.203125 -60.078125 C 11.378906 -61.691406 14.769531 -63.007812 18.375 -64.03125 C 21.976562 -65.0625 25.617188 -65.140625 29.296875 -64.265625 C 32.585938 -63.460938 35.507812 -61.878906 38.0625 -59.515625 C 40.613281 -57.148438 42.289062 -54.472656 43.09375 -51.484375 C 43.84375 -48.628906 43.765625 -45.769531 42.859375 -42.90625 C 41.960938 -40.050781 40.363281 -37.472656 38.0625 -35.171875 C 38.988281 -34.796875 39.765625 -34.390625 40.390625 -33.953125 C 43.804688 -31.898438 46.554688 -29.222656 48.640625 -25.921875 C 50.722656 -22.628906 51.890625 -19.148438 52.140625 -15.484375 Z M 25.65625 -54.296875 C 23.539062 -54.597656 21.441406 -54.390625 19.359375 -53.671875 C 17.273438 -52.960938 15.238281 -52.082031 13.25 -51.03125 C 13.5625 -48.914062 13.851562 -46.800781 14.125 -44.6875 C 14.40625 -42.570312 14.703125 -40.425781 15.015625 -38.25 C 17.316406 -38.3125 19.570312 -38.445312 21.78125 -38.65625 C 23.988281 -38.875 26.054688 -39.484375 27.984375 -40.484375 C 29.847656 -41.484375 31.242188 -42.742188 32.171875 -44.265625 C 33.109375 -45.785156 33.359375 -47.257812 32.921875 -48.6875 C 32.617188 -50.125 31.78125 -51.367188 30.40625 -52.421875 C 29.039062 -53.484375 27.457031 -54.109375 25.65625 -54.296875 Z M 20.796875 -2.515625 C 23.035156 -1.953125 25.429688 -1.78125 27.984375 -2 C 30.535156 -2.21875 32.898438 -2.851562 35.078125 -3.90625 C 37.253906 -4.96875 38.992188 -6.445312 40.296875 -8.34375 C 41.597656 -10.238281 42.097656 -12.554688 41.796875 -15.296875 C 41.484375 -18.097656 40.515625 -20.367188 38.890625 -22.109375 C 37.273438 -23.847656 35.269531 -25.148438 32.875 -26.015625 C 30.488281 -26.890625 27.972656 -27.390625 25.328125 -27.515625 C 22.679688 -27.640625 20.144531 -27.453125 17.71875 -26.953125 C 17.40625 -26.953125 17.160156 -26.921875 16.984375 -26.859375 C 18.222656 -20.148438 19.710938 -13.375 21.453125 -6.53125 C 21.828125 -4.976562 21.609375 -3.640625 20.796875 -2.515625 Z M 20.796875 -2.515625 "/></g></g></g><g fill="#fffaeb" fill-opacity="1"><g transform="translate(520.665414, 93.54853)"><g><path d="M 60.078125 -5.6875 C 60.453125 -4.070312 60.234375 -2.71875 59.421875 -1.625 C 58.609375 -0.539062 57.535156 0.171875 56.203125 0.515625 C 54.867188 0.859375 53.59375 0.75 52.375 0.1875 C 51.164062 -0.375 50.34375 -1.460938 49.90625 -3.078125 C 48.726562 -7.679688 47.453125 -12.3125 46.078125 -16.96875 C 44.710938 -21.632812 43.222656 -26.300781 41.609375 -30.96875 L 40.765625 -33.390625 C 40.140625 -35.066406 39.515625 -36.742188 38.890625 -38.421875 C 38.273438 -40.109375 37.625 -41.757812 36.9375 -43.375 C 35.945312 -45.863281 34.96875 -47.757812 34 -49.0625 C 33.039062 -50.375 31.96875 -51.273438 30.78125 -51.765625 C 29.851562 -52.265625 29.078125 -52.078125 28.453125 -51.203125 C 27.828125 -50.335938 27.144531 -48.566406 26.40625 -45.890625 C 26.34375 -45.515625 26.25 -45.140625 26.125 -44.765625 C 26 -44.398438 25.875 -44.0625 25.75 -43.75 C 24.1875 -39.269531 22.691406 -34.789062 21.265625 -30.3125 C 21.203125 -30.0625 21.15625 -29.84375 21.125 -29.65625 C 21.09375 -29.476562 21.015625 -29.296875 20.890625 -29.109375 L 37.5 -30.96875 C 39.238281 -31.15625 40.539062 -30.765625 41.40625 -29.796875 C 42.28125 -28.835938 42.71875 -27.671875 42.71875 -26.296875 C 42.71875 -24.929688 42.3125 -23.671875 41.5 -22.515625 C 40.695312 -21.367188 39.488281 -20.703125 37.875 -20.515625 L 17.4375 -18.375 C 16.632812 -15.695312 15.828125 -13.035156 15.015625 -10.390625 C 14.210938 -7.753906 13.4375 -5.066406 12.6875 -2.328125 C 12.25 -0.710938 11.390625 0.351562 10.109375 0.875 C 8.835938 1.40625 7.550781 1.484375 6.25 1.109375 C 4.945312 0.742188 3.90625 0.0195312 3.125 -1.0625 C 2.34375 -2.15625 2.203125 -3.507812 2.703125 -5.125 C 4.378906 -11.09375 6.148438 -17.078125 8.015625 -23.078125 C 9.890625 -29.085938 11.851562 -35.046875 13.90625 -40.953125 C 14.394531 -42.503906 14.921875 -44.289062 15.484375 -46.3125 C 16.046875 -48.332031 16.726562 -50.367188 17.53125 -52.421875 C 18.34375 -54.472656 19.351562 -56.335938 20.5625 -58.015625 C 21.78125 -59.703125 23.289062 -60.960938 25.09375 -61.796875 C 26.894531 -62.640625 29.039062 -62.84375 31.53125 -62.40625 C 34.207031 -61.90625 36.507812 -60.863281 38.4375 -59.28125 C 40.363281 -57.695312 41.992188 -55.816406 43.328125 -53.640625 C 44.660156 -51.460938 45.804688 -49.191406 46.765625 -46.828125 C 47.734375 -44.460938 48.59375 -42.253906 49.34375 -40.203125 C 53.570312 -28.703125 57.148438 -17.195312 60.078125 -5.6875 Z M 60.078125 -5.6875 "/></g></g></g></g></g></svg>