<svg xmlns="http://www.w3.org/2000/svg" xmlns:xlink="http://www.w3.org/1999/xlink" width="2000" zoomAndPan="magnify" viewBox="0 0 1500 749.999995" height="1000" preserveAspectRatio="xMidYMid meet" version="1.0"><defs><g/><clipPath id="b73cb2deed"><path d="M 273.832031 193 L 537.386719 193 L 537.386719 492.980469 L 273.832031 492.980469 Z M 273.832031 193 " clip-rule="nonzero"/></clipPath><clipPath id="faf9730ac9"><rect x="0" width="380" y="0" height="82"/></clipPath><clipPath id="c6b405132f"><rect x="0" width="539" y="0" height="494"/></clipPath></defs><g transform="matrix(1, 0, 0, 1, 879, 138)"><g clip-path="url(#c6b405132f)"><path fill="#fffaeb" d="M 476.195312 235.238281 C 476.195312 235.238281 476.417969 234.792969 476.851562 233.921875 C 477.285156 233.054688 477.976562 231.773438 478.765625 230.109375 C 480.355469 226.789062 482.65625 221.90625 484.96875 215.605469 C 485.585938 214.054688 486.152344 212.382812 486.757812 210.652344 C 487.328125 208.898438 487.914062 207.074219 488.484375 205.171875 C 489.082031 203.273438 489.609375 201.273438 490.164062 199.21875 C 490.664062 197.136719 491.207031 195.003906 491.683594 192.792969 C 493.625 183.9375 495.09375 173.910156 495.605469 163.078125 C 496.121094 152.261719 495.660156 140.625 493.71875 128.820312 C 491.804688 117.015625 488.335938 105.058594 483.03125 93.933594 C 477.691406 82.828125 470.4375 72.664062 461.296875 64.351562 C 452.167969 56.019531 441.105469 49.5625 428.722656 45.105469 C 427.957031 44.808594 427.171875 44.550781 426.382812 44.300781 L 424.03125 43.511719 C 422.433594 43.035156 420.839844 42.550781 419.222656 42.109375 L 416.777344 41.492188 L 415.558594 41.164062 C 415.644531 41.175781 415.144531 41.078125 415.71875 41.179688 L 415.539062 41.148438 L 415.179688 41.074219 L 414.46875 40.921875 L 411.613281 40.328125 L 409.375 39.933594 L 408.253906 39.734375 L 407.03125 39.5625 C 406.210938 39.453125 405.398438 39.320312 404.578125 39.21875 C 402.9375 39.046875 401.304688 38.816406 399.664062 38.714844 C 396.378906 38.417969 393.085938 38.332031 389.789062 38.347656 C 376.617188 38.410156 363.457031 40.828125 351.019531 44.996094 C 338.582031 49.148438 326.824219 54.878906 316.203125 61.464844 C 305.558594 68.023438 295.996094 75.367188 287.648438 82.789062 C 283.46875 86.5 279.582031 90.230469 276.023438 93.925781 C 272.441406 97.605469 269.164062 101.246094 266.226562 104.792969 C 263.269531 108.332031 260.589844 111.742188 258.261719 115.007812 C 255.921875 118.265625 253.839844 121.335938 252.085938 124.195312 C 248.539062 129.898438 246.164062 134.683594 244.648438 138.015625 C 243.90625 139.6875 243.335938 140.988281 243 141.878906 C 242.640625 142.769531 242.453125 143.222656 242.453125 143.222656 C 242.453125 143.222656 242.472656 142.730469 242.503906 141.773438 C 242.542969 140.8125 242.640625 139.386719 242.828125 137.527344 C 243.230469 133.816406 244.097656 128.34375 246.046875 121.546875 C 247.042969 118.167969 248.25 114.429688 249.8125 110.449219 C 251.386719 106.480469 253.222656 102.226562 255.445312 97.792969 C 257.679688 93.371094 260.238281 88.742188 263.175781 83.988281 C 266.121094 79.238281 269.464844 74.398438 273.203125 69.496094 C 280.6875 59.714844 289.816406 49.761719 300.78125 40.464844 C 311.722656 31.164062 324.554688 22.5 339.242188 15.710938 C 353.886719 8.917969 370.492188 4.082031 388.011719 2.660156 C 392.378906 2.300781 396.800781 2.140625 401.238281 2.21875 C 403.457031 2.226562 405.675781 2.351562 407.902344 2.460938 C 409.011719 2.535156 410.121094 2.640625 411.234375 2.730469 L 412.902344 2.878906 L 414.660156 3.085938 L 418.195312 3.523438 L 421.082031 3.957031 L 421.800781 4.070312 L 422.164062 4.121094 L 422.339844 4.152344 L 422.859375 4.246094 L 424.488281 4.535156 L 427.757812 5.144531 C 429.929688 5.597656 432.105469 6.097656 434.28125 6.613281 C 436.449219 7.207031 438.628906 7.714844 440.773438 8.429688 C 458.011719 13.636719 474.746094 22.855469 488.078125 35.507812 C 494.726562 41.820312 500.621094 48.820312 505.460938 56.289062 C 510.355469 63.730469 514.230469 71.582031 517.269531 79.488281 C 523.277344 95.351562 525.792969 111.386719 525.9375 126.28125 C 526.109375 141.207031 523.984375 155.046875 520.617188 167.28125 C 517.257812 179.527344 512.621094 190.167969 507.683594 199.023438 C 502.734375 207.882812 497.429688 214.933594 492.707031 220.308594 C 487.933594 225.675781 483.785156 229.390625 480.808594 231.773438 C 479.351562 232.988281 478.175781 233.804688 477.390625 234.378906 C 476.601562 234.945312 476.195312 235.238281 476.195312 235.238281 " fill-opacity="1" fill-rule="nonzero"/><path fill="#fffaeb" d="M 243.179688 84.070312 C 243.179688 84.070312 242.664062 83.609375 241.660156 82.722656 C 240.660156 81.828125 239.148438 80.527344 237.183594 78.859375 C 235.210938 77.195312 232.738281 75.199219 229.804688 72.929688 C 228.332031 71.796875 226.734375 70.613281 225.011719 69.382812 C 223.296875 68.144531 221.460938 66.855469 219.492188 65.550781 C 215.546875 62.957031 211.125 60.210938 206.183594 57.554688 C 201.230469 54.925781 195.8125 52.296875 189.878906 50.027344 C 183.941406 47.773438 177.566406 45.722656 170.746094 44.316406 C 163.925781 42.90625 156.730469 41.996094 149.253906 41.882812 C 141.773438 41.753906 134.035156 42.394531 126.175781 43.859375 C 125.195312 44.058594 124.207031 44.226562 123.226562 44.453125 L 121.742188 44.777344 C 121.78125 44.769531 121.402344 44.835938 121.777344 44.78125 L 121.570312 44.828125 L 121.160156 44.925781 L 120.335938 45.125 C 119.242188 45.386719 118.148438 45.648438 117.046875 45.910156 C 116.117188 46.175781 115.179688 46.445312 114.242188 46.710938 C 113.328125 46.953125 112.316406 47.300781 111.335938 47.605469 C 110.351562 47.917969 109.359375 48.214844 108.390625 48.582031 C 107.417969 48.925781 106.4375 49.277344 105.457031 49.625 C 104.496094 50.003906 103.527344 50.382812 102.554688 50.761719 C 94.863281 53.933594 87.414062 57.921875 80.617188 62.957031 C 73.8125 67.960938 67.597656 73.90625 62.289062 80.730469 C 51.609375 94.316406 44.550781 111.40625 41.949219 129.6875 C 39.304688 147.964844 41.0625 167.320312 46.835938 185.355469 C 48.296875 189.863281 49.984375 194.296875 51.910156 198.621094 C 53.828125 202.941406 56.03125 207.136719 58.398438 211.210938 C 60.78125 215.285156 63.390625 219.210938 66.210938 222.96875 L 66.730469 223.671875 L 66.992188 224.03125 C 66.746094 223.722656 67.015625 224.058594 67 224.042969 L 67.15625 224.246094 L 68.410156 225.851562 L 69.664062 227.460938 L 70.773438 228.816406 C 72.179688 230.574219 73.824219 232.488281 75.429688 234.320312 C 88.363281 249.078125 103.644531 261.980469 119.507812 273.996094 C 135.382812 286.015625 151.773438 297.25 167.15625 308.746094 C 182.554688 320.214844 196.929688 331.984375 209.101562 344.15625 C 215.1875 350.230469 220.742188 356.375 225.703125 362.46875 C 230.621094 368.605469 235.003906 374.640625 238.765625 380.523438 C 246.28125 392.304688 251.507812 403.257812 255.035156 412.476562 C 256.84375 417.066406 258.21875 421.242188 259.328125 424.882812 C 259.890625 426.699219 260.34375 428.402344 260.789062 429.949219 C 261.226562 431.5 261.535156 432.929688 261.859375 434.195312 C 262.511719 436.722656 262.863281 438.699219 263.152344 440.011719 C 263.417969 441.332031 263.558594 442.011719 263.558594 442.011719 C 263.558594 442.011719 263.21875 441.40625 262.5625 440.226562 C 261.910156 439.054688 260.976562 437.296875 259.679688 435.058594 C 258.410156 432.804688 256.78125 430.070312 254.855469 426.894531 C 253.847656 425.324219 252.820312 423.621094 251.636719 421.855469 C 251.058594 420.96875 250.460938 420.050781 249.84375 419.109375 C 249.226562 418.175781 248.550781 417.234375 247.878906 416.253906 C 247.207031 415.28125 246.515625 414.28125 245.769531 413.285156 C 245.039062 412.277344 244.289062 411.246094 243.527344 410.191406 C 242.742188 409.15625 241.9375 408.09375 241.113281 407.011719 C 240.292969 405.933594 239.402344 404.859375 238.527344 403.757812 C 234.949219 399.375 231.015625 394.738281 226.511719 390.089844 C 217.613281 380.699219 206.667969 371.160156 193.90625 361.789062 C 181.140625 352.398438 166.480469 343.273438 150.4375 333.851562 C 134.421875 324.390625 116.96875 314.613281 99.128906 302.960938 C 94.660156 300.054688 90.199219 296.996094 85.730469 293.804688 C 83.5 292.214844 81.269531 290.574219 79.039062 288.914062 C 76.828125 287.222656 74.609375 285.507812 72.40625 283.742188 C 63.589844 276.691406 54.957031 268.910156 46.882812 260.277344 C 44.867188 258.097656 42.914062 255.957031 40.859375 253.535156 L 39.347656 251.777344 L 36.753906 248.628906 L 36.285156 248.046875 L 35.925781 247.59375 L 35.214844 246.675781 C 31.417969 241.78125 27.886719 236.65625 24.660156 231.339844 C 21.417969 226.023438 18.546875 220.472656 15.964844 214.792969 C 13.382812 209.113281 11.132812 203.269531 9.269531 197.304688 C 1.699219 173.5 -0.113281 147.847656 4.367188 123.445312 C 6.574219 111.246094 10.402344 99.378906 15.71875 88.328125 C 18.386719 82.808594 21.414062 77.484375 24.804688 72.449219 C 28.195312 67.414062 31.929688 62.648438 35.945312 58.222656 C 39.976562 53.800781 44.296875 49.726562 48.832031 46.015625 C 53.367188 42.304688 58.132812 38.996094 63.007812 36.058594 C 72.773438 30.167969 83.070312 25.960938 93.238281 23.070312 C 94.515625 22.726562 95.785156 22.382812 97.050781 22.042969 C 98.320312 21.722656 99.59375 21.449219 100.855469 21.160156 C 102.117188 20.859375 103.382812 20.632812 104.640625 20.390625 C 105.910156 20.160156 107.117188 19.90625 108.457031 19.710938 C 109.761719 19.515625 111.066406 19.3125 112.359375 19.113281 C 113.539062 18.964844 114.632812 18.855469 115.769531 18.730469 L 116.613281 18.640625 L 117.035156 18.59375 L 117.238281 18.574219 C 117.757812 18.492188 117.519531 18.539062 117.691406 18.515625 L 119.542969 18.359375 C 120.769531 18.238281 122.003906 18.179688 123.226562 18.09375 C 128.117188 17.804688 132.945312 17.828125 137.664062 18.082031 C 142.382812 18.324219 146.992188 18.855469 151.449219 19.605469 C 155.914062 20.335938 160.222656 21.316406 164.355469 22.484375 C 168.496094 23.636719 172.457031 24.988281 176.222656 26.496094 C 183.761719 29.503906 190.574219 32.96875 196.578125 36.757812 C 202.597656 40.507812 207.902344 44.417969 212.5 48.335938 C 217.121094 52.230469 221.09375 56.054688 224.480469 59.660156 C 226.179688 61.464844 227.742188 63.199219 229.179688 64.855469 C 230.601562 66.527344 231.90625 68.109375 233.085938 69.605469 C 235.460938 72.585938 237.347656 75.214844 238.832031 77.359375 C 240.324219 79.503906 241.390625 81.199219 242.113281 82.335938 C 242.820312 83.480469 243.179688 84.070312 243.179688 84.070312 " fill-opacity="1" fill-rule="nonzero"/><g clip-path="url(#b73cb2deed)"><path fill="#fffaeb" d="M 513.871094 235.214844 C 474.25 359.21875 319.589844 351.492188 371.234375 327.59375 C 426.007812 302.25 431.558594 232.695312 408.457031 262.636719 C 379.738281 299.855469 345.230469 289.617188 302.480469 335.691406 C 248.710938 393.632812 287.402344 493.050781 287.402344 493.050781 C 299.914062 430.617188 389.417969 398.949219 467.792969 347.179688 C 546.167969 295.410156 553.488281 111.203125 513.871094 235.214844 " fill-opacity="1" fill-rule="nonzero"/></g><g transform="matrix(1, 0, 0, 1, 87, 172)"><g clip-path="url(#faf9730ac9)"><g fill="#fffaeb" fill-opacity="0.4"><g transform="translate(0.960354, 57.916791)"><g><path d="M 16.140625 -40.4375 L 34.9375 -39.5625 C 35.976562 -39.519531 36.757812 -39.160156 37.28125 -38.484375 C 37.800781 -37.816406 38.050781 -37.054688 38.03125 -36.203125 C 38.007812 -35.359375 37.726562 -34.617188 37.1875 -33.984375 C 36.65625 -33.347656 35.867188 -33.050781 34.828125 -33.09375 C 32.628906 -33.207031 30.429688 -33.320312 28.234375 -33.4375 C 26.035156 -33.550781 23.816406 -33.628906 21.578125 -33.671875 C 21.691406 -23.328125 22.675781 -13.109375 24.53125 -3.015625 C 24.71875 -1.972656 24.539062 -1.113281 24 -0.4375 C 23.46875 0.238281 22.785156 0.679688 21.953125 0.890625 C 21.117188 1.109375 20.34375 1.03125 19.625 0.65625 C 18.914062 0.289062 18.46875 -0.410156 18.28125 -1.453125 C 16.269531 -12.128906 15.226562 -23.019531 15.15625 -34.125 C 13.5 -34.320312 11.878906 -34.378906 10.296875 -34.296875 C 8.710938 -34.222656 7.441406 -33.742188 6.484375 -32.859375 C 5.710938 -32.160156 4.898438 -31.859375 4.046875 -31.953125 C 3.203125 -32.054688 2.476562 -32.414062 1.875 -33.03125 C 1.28125 -33.644531 0.953125 -34.359375 0.890625 -35.171875 C 0.835938 -35.984375 1.195312 -36.734375 1.96875 -37.421875 C 3.3125 -38.691406 4.773438 -39.539062 6.359375 -39.96875 C 7.941406 -40.394531 9.570312 -40.597656 11.25 -40.578125 C 12.925781 -40.554688 14.554688 -40.507812 16.140625 -40.4375 Z M 16.140625 -40.4375 "/></g></g></g><g fill="#fffaeb" fill-opacity="0.4"><g transform="translate(57.307071, 57.916791)"><g><path d="M 37.25 -3.53125 C 37.476562 -2.53125 37.34375 -1.691406 36.84375 -1.015625 C 36.34375 -0.335938 35.675781 0.101562 34.84375 0.3125 C 34.019531 0.53125 33.226562 0.460938 32.46875 0.109375 C 31.71875 -0.234375 31.210938 -0.90625 30.953125 -1.90625 C 30.210938 -4.757812 29.414062 -7.628906 28.5625 -10.515625 C 27.71875 -13.410156 26.796875 -16.304688 25.796875 -19.203125 L 25.28125 -20.703125 C 24.894531 -21.742188 24.507812 -22.785156 24.125 -23.828125 C 23.738281 -24.867188 23.332031 -25.890625 22.90625 -26.890625 C 22.289062 -28.441406 21.679688 -29.617188 21.078125 -30.421875 C 20.484375 -31.234375 19.820312 -31.796875 19.09375 -32.109375 C 18.507812 -32.410156 18.023438 -32.289062 17.640625 -31.75 C 17.253906 -31.21875 16.832031 -30.117188 16.375 -28.453125 C 16.332031 -28.222656 16.269531 -27.992188 16.1875 -27.765625 C 16.113281 -27.535156 16.039062 -27.320312 15.96875 -27.125 C 15 -24.351562 14.070312 -21.578125 13.1875 -18.796875 C 13.144531 -18.640625 13.113281 -18.503906 13.09375 -18.390625 C 13.082031 -18.273438 13.035156 -18.160156 12.953125 -18.046875 L 23.25 -19.203125 C 24.332031 -19.316406 25.144531 -19.070312 25.6875 -18.46875 C 26.226562 -17.875 26.5 -17.15625 26.5 -16.3125 C 26.5 -15.46875 26.242188 -14.6875 25.734375 -13.96875 C 25.234375 -13.257812 24.484375 -12.84375 23.484375 -12.71875 L 10.8125 -11.390625 C 10.3125 -9.734375 9.8125 -8.082031 9.3125 -6.4375 C 8.8125 -4.800781 8.328125 -3.140625 7.859375 -1.453125 C 7.597656 -0.441406 7.070312 0.222656 6.28125 0.546875 C 5.488281 0.878906 4.6875 0.925781 3.875 0.6875 C 3.0625 0.457031 2.414062 0.0078125 1.9375 -0.65625 C 1.457031 -1.332031 1.367188 -2.175781 1.671875 -3.1875 C 2.710938 -6.882812 3.8125 -10.59375 4.96875 -14.3125 C 6.125 -18.03125 7.34375 -21.722656 8.625 -25.390625 C 8.925781 -26.359375 9.25 -27.46875 9.59375 -28.71875 C 9.945312 -29.96875 10.375 -31.226562 10.875 -32.5 C 11.375 -33.78125 12 -34.941406 12.75 -35.984375 C 13.5 -37.023438 14.429688 -37.804688 15.546875 -38.328125 C 16.671875 -38.847656 18.003906 -38.972656 19.546875 -38.703125 C 21.203125 -38.390625 22.628906 -37.738281 23.828125 -36.75 C 25.023438 -35.769531 26.035156 -34.601562 26.859375 -33.25 C 27.691406 -31.90625 28.40625 -30.5 29 -29.03125 C 29.601562 -27.570312 30.132812 -26.207031 30.59375 -24.9375 C 33.21875 -17.800781 35.4375 -10.664062 37.25 -3.53125 Z M 37.25 -3.53125 "/></g></g></g><g fill="#fffaeb" fill-opacity="0.4"><g transform="translate(113.480248, 57.916791)"><g><path d="M 32.328125 -9.609375 C 32.523438 -7.367188 32.195312 -5.34375 31.34375 -3.53125 C 30.5 -1.71875 29.296875 -0.175781 27.734375 1.09375 C 26.171875 2.375 24.425781 3.367188 22.5 4.078125 C 20.570312 4.785156 18.578125 5.175781 16.515625 5.25 C 14.453125 5.332031 12.515625 5.085938 10.703125 4.515625 C 9.546875 4.128906 8.84375 3.441406 8.59375 2.453125 C 8.34375 1.472656 8.425781 0.578125 8.84375 -0.234375 C 7.882812 -0.535156 7.269531 -1.25 7 -2.375 C 4.414062 -12.9375 2.582031 -23.5 1.5 -34.0625 C 1.382812 -35.101562 1.679688 -35.941406 2.390625 -36.578125 C 3.109375 -37.222656 4.007812 -37.445312 5.09375 -37.25 C 7.0625 -38.25 9.160156 -39.066406 11.390625 -39.703125 C 13.628906 -40.347656 15.882812 -40.398438 18.15625 -39.859375 C 20.207031 -39.359375 22.019531 -38.375 23.59375 -36.90625 C 25.175781 -35.4375 26.21875 -33.78125 26.71875 -31.9375 C 27.1875 -30.15625 27.140625 -28.378906 26.578125 -26.609375 C 26.015625 -24.835938 25.019531 -23.238281 23.59375 -21.8125 C 24.175781 -21.570312 24.660156 -21.320312 25.046875 -21.0625 C 27.171875 -19.78125 28.878906 -18.117188 30.171875 -16.078125 C 31.460938 -14.035156 32.179688 -11.878906 32.328125 -9.609375 Z M 15.90625 -33.671875 C 14.59375 -33.859375 13.289062 -33.726562 12 -33.28125 C 10.707031 -32.84375 9.445312 -32.296875 8.21875 -31.640625 C 8.40625 -30.328125 8.585938 -29.015625 8.765625 -27.703125 C 8.941406 -26.390625 9.125 -25.0625 9.3125 -23.71875 C 10.738281 -23.757812 12.132812 -23.84375 13.5 -23.96875 C 14.875 -24.101562 16.160156 -24.484375 17.359375 -25.109375 C 18.515625 -25.722656 19.378906 -26.5 19.953125 -27.4375 C 20.535156 -28.382812 20.691406 -29.300781 20.421875 -30.1875 C 20.222656 -31.082031 19.695312 -31.851562 18.84375 -32.5 C 18 -33.15625 17.019531 -33.546875 15.90625 -33.671875 Z M 12.90625 -1.5625 C 14.289062 -1.21875 15.769531 -1.113281 17.34375 -1.25 C 18.925781 -1.382812 20.394531 -1.773438 21.75 -2.421875 C 23.101562 -3.078125 24.179688 -3.992188 24.984375 -5.171875 C 25.796875 -6.347656 26.101562 -7.785156 25.90625 -9.484375 C 25.71875 -11.222656 25.117188 -12.628906 24.109375 -13.703125 C 23.109375 -14.785156 21.863281 -15.597656 20.375 -16.140625 C 18.894531 -16.679688 17.335938 -16.988281 15.703125 -17.0625 C 14.066406 -17.132812 12.492188 -17.019531 10.984375 -16.71875 C 10.796875 -16.71875 10.644531 -16.695312 10.53125 -16.65625 C 11.300781 -12.488281 12.222656 -8.285156 13.296875 -4.046875 C 13.535156 -3.085938 13.40625 -2.257812 12.90625 -1.5625 Z M 12.90625 -1.5625 "/></g></g></g><g fill="#fffaeb" fill-opacity="0.4"><g transform="translate(164.736135, 57.916791)"><g><path d="M 32.328125 -9.609375 C 32.523438 -7.367188 32.195312 -5.34375 31.34375 -3.53125 C 30.5 -1.71875 29.296875 -0.175781 27.734375 1.09375 C 26.171875 2.375 24.425781 3.367188 22.5 4.078125 C 20.570312 4.785156 18.578125 5.175781 16.515625 5.25 C 14.453125 5.332031 12.515625 5.085938 10.703125 4.515625 C 9.546875 4.128906 8.84375 3.441406 8.59375 2.453125 C 8.34375 1.472656 8.425781 0.578125 8.84375 -0.234375 C 7.882812 -0.535156 7.269531 -1.25 7 -2.375 C 4.414062 -12.9375 2.582031 -23.5 1.5 -34.0625 C 1.382812 -35.101562 1.679688 -35.941406 2.390625 -36.578125 C 3.109375 -37.222656 4.007812 -37.445312 5.09375 -37.25 C 7.0625 -38.25 9.160156 -39.066406 11.390625 -39.703125 C 13.628906 -40.347656 15.882812 -40.398438 18.15625 -39.859375 C 20.207031 -39.359375 22.019531 -38.375 23.59375 -36.90625 C 25.175781 -35.4375 26.21875 -33.78125 26.71875 -31.9375 C 27.1875 -30.15625 27.140625 -28.378906 26.578125 -26.609375 C 26.015625 -24.835938 25.019531 -23.238281 23.59375 -21.8125 C 24.175781 -21.570312 24.660156 -21.320312 25.046875 -21.0625 C 27.171875 -19.78125 28.878906 -18.117188 30.171875 -16.078125 C 31.460938 -14.035156 32.179688 -11.878906 32.328125 -9.609375 Z M 15.90625 -33.671875 C 14.59375 -33.859375 13.289062 -33.726562 12 -33.28125 C 10.707031 -32.84375 9.445312 -32.296875 8.21875 -31.640625 C 8.40625 -30.328125 8.585938 -29.015625 8.765625 -27.703125 C 8.941406 -26.390625 9.125 -25.0625 9.3125 -23.71875 C 10.738281 -23.757812 12.132812 -23.84375 13.5 -23.96875 C 14.875 -24.101562 16.160156 -24.484375 17.359375 -25.109375 C 18.515625 -25.722656 19.378906 -26.5 19.953125 -27.4375 C 20.535156 -28.382812 20.691406 -29.300781 20.421875 -30.1875 C 20.222656 -31.082031 19.695312 -31.851562 18.84375 -32.5 C 18 -33.15625 17.019531 -33.546875 15.90625 -33.671875 Z M 12.90625 -1.5625 C 14.289062 -1.21875 15.769531 -1.113281 17.34375 -1.25 C 18.925781 -1.382812 20.394531 -1.773438 21.75 -2.421875 C 23.101562 -3.078125 24.179688 -3.992188 24.984375 -5.171875 C 25.796875 -6.347656 26.101562 -7.785156 25.90625 -9.484375 C 25.71875 -11.222656 25.117188 -12.628906 24.109375 -13.703125 C 23.109375 -14.785156 21.863281 -15.597656 20.375 -16.140625 C 18.894531 -16.679688 17.335938 -16.988281 15.703125 -17.0625 C 14.066406 -17.132812 12.492188 -17.019531 10.984375 -16.71875 C 10.796875 -16.71875 10.644531 -16.695312 10.53125 -16.65625 C 11.300781 -12.488281 12.222656 -8.285156 13.296875 -4.046875 C 13.535156 -3.085938 13.40625 -2.257812 12.90625 -1.5625 Z M 12.90625 -1.5625 "/></g></g></g><g fill="#fffaeb" fill-opacity="0.4"><g transform="translate(215.992049, 57.916791)"><g><path d="M 37.25 -3.53125 C 37.476562 -2.53125 37.34375 -1.691406 36.84375 -1.015625 C 36.34375 -0.335938 35.675781 0.101562 34.84375 0.3125 C 34.019531 0.53125 33.226562 0.460938 32.46875 0.109375 C 31.71875 -0.234375 31.210938 -0.90625 30.953125 -1.90625 C 30.210938 -4.757812 29.414062 -7.628906 28.5625 -10.515625 C 27.71875 -13.410156 26.796875 -16.304688 25.796875 -19.203125 L 25.28125 -20.703125 C 24.894531 -21.742188 24.507812 -22.785156 24.125 -23.828125 C 23.738281 -24.867188 23.332031 -25.890625 22.90625 -26.890625 C 22.289062 -28.441406 21.679688 -29.617188 21.078125 -30.421875 C 20.484375 -31.234375 19.820312 -31.796875 19.09375 -32.109375 C 18.507812 -32.410156 18.023438 -32.289062 17.640625 -31.75 C 17.253906 -31.21875 16.832031 -30.117188 16.375 -28.453125 C 16.332031 -28.222656 16.269531 -27.992188 16.1875 -27.765625 C 16.113281 -27.535156 16.039062 -27.320312 15.96875 -27.125 C 15 -24.351562 14.070312 -21.578125 13.1875 -18.796875 C 13.144531 -18.640625 13.113281 -18.503906 13.09375 -18.390625 C 13.082031 -18.273438 13.035156 -18.160156 12.953125 -18.046875 L 23.25 -19.203125 C 24.332031 -19.316406 25.144531 -19.070312 25.6875 -18.46875 C 26.226562 -17.875 26.5 -17.15625 26.5 -16.3125 C 26.5 -15.46875 26.242188 -14.6875 25.734375 -13.96875 C 25.234375 -13.257812 24.484375 -12.84375 23.484375 -12.71875 L 10.8125 -11.390625 C 10.3125 -9.734375 9.8125 -8.082031 9.3125 -6.4375 C 8.8125 -4.800781 8.328125 -3.140625 7.859375 -1.453125 C 7.597656 -0.441406 7.070312 0.222656 6.28125 0.546875 C 5.488281 0.878906 4.6875 0.925781 3.875 0.6875 C 3.0625 0.457031 2.414062 0.0078125 1.9375 -0.65625 C 1.457031 -1.332031 1.367188 -2.175781 1.671875 -3.1875 C 2.710938 -6.882812 3.8125 -10.59375 4.96875 -14.3125 C 6.125 -18.03125 7.34375 -21.722656 8.625 -25.390625 C 8.925781 -26.359375 9.25 -27.46875 9.59375 -28.71875 C 9.945312 -29.96875 10.375 -31.226562 10.875 -32.5 C 11.375 -33.78125 12 -34.941406 12.75 -35.984375 C 13.5 -37.023438 14.429688 -37.804688 15.546875 -38.328125 C 16.671875 -38.847656 18.003906 -38.972656 19.546875 -38.703125 C 21.203125 -38.390625 22.628906 -37.738281 23.828125 -36.75 C 25.023438 -35.769531 26.035156 -34.601562 26.859375 -33.25 C 27.691406 -31.90625 28.40625 -30.5 29 -29.03125 C 29.601562 -27.570312 30.132812 -26.207031 30.59375 -24.9375 C 33.21875 -17.800781 35.4375 -10.664062 37.25 -3.53125 Z M 37.25 -3.53125 "/></g></g></g><g fill="#fffaeb" fill-opacity="0.4"><g transform="translate(272.165226, 57.916791)"><g><path d="M 32.328125 -9.609375 C 32.523438 -7.367188 32.195312 -5.34375 31.34375 -3.53125 C 30.5 -1.71875 29.296875 -0.175781 27.734375 1.09375 C 26.171875 2.375 24.425781 3.367188 22.5 4.078125 C 20.570312 4.785156 18.578125 5.175781 16.515625 5.25 C 14.453125 5.332031 12.515625 5.085938 10.703125 4.515625 C 9.546875 4.128906 8.84375 3.441406 8.59375 2.453125 C 8.34375 1.472656 8.425781 0.578125 8.84375 -0.234375 C 7.882812 -0.535156 7.269531 -1.25 7 -2.375 C 4.414062 -12.9375 2.582031 -23.5 1.5 -34.0625 C 1.382812 -35.101562 1.679688 -35.941406 2.390625 -36.578125 C 3.109375 -37.222656 4.007812 -37.445312 5.09375 -37.25 C 7.0625 -38.25 9.160156 -39.066406 11.390625 -39.703125 C 13.628906 -40.347656 15.882812 -40.398438 18.15625 -39.859375 C 20.207031 -39.359375 22.019531 -38.375 23.59375 -36.90625 C 25.175781 -35.4375 26.21875 -33.78125 26.71875 -31.9375 C 27.1875 -30.15625 27.140625 -28.378906 26.578125 -26.609375 C 26.015625 -24.835938 25.019531 -23.238281 23.59375 -21.8125 C 24.175781 -21.570312 24.660156 -21.320312 25.046875 -21.0625 C 27.171875 -19.78125 28.878906 -18.117188 30.171875 -16.078125 C 31.460938 -14.035156 32.179688 -11.878906 32.328125 -9.609375 Z M 15.90625 -33.671875 C 14.59375 -33.859375 13.289062 -33.726562 12 -33.28125 C 10.707031 -32.84375 9.445312 -32.296875 8.21875 -31.640625 C 8.40625 -30.328125 8.585938 -29.015625 8.765625 -27.703125 C 8.941406 -26.390625 9.125 -25.0625 9.3125 -23.71875 C 10.738281 -23.757812 12.132812 -23.84375 13.5 -23.96875 C 14.875 -24.101562 16.160156 -24.484375 17.359375 -25.109375 C 18.515625 -25.722656 19.378906 -26.5 19.953125 -27.4375 C 20.535156 -28.382812 20.691406 -29.300781 20.421875 -30.1875 C 20.222656 -31.082031 19.695312 -31.851562 18.84375 -32.5 C 18 -33.15625 17.019531 -33.546875 15.90625 -33.671875 Z M 12.90625 -1.5625 C 14.289062 -1.21875 15.769531 -1.113281 17.34375 -1.25 C 18.925781 -1.382812 20.394531 -1.773438 21.75 -2.421875 C 23.101562 -3.078125 24.179688 -3.992188 24.984375 -5.171875 C 25.796875 -6.347656 26.101562 -7.785156 25.90625 -9.484375 C 25.71875 -11.222656 25.117188 -12.628906 24.109375 -13.703125 C 23.109375 -14.785156 21.863281 -15.597656 20.375 -16.140625 C 18.894531 -16.679688 17.335938 -16.988281 15.703125 -17.0625 C 14.066406 -17.132812 12.492188 -17.019531 10.984375 -16.71875 C 10.796875 -16.71875 10.644531 -16.695312 10.53125 -16.65625 C 11.300781 -12.488281 12.222656 -8.285156 13.296875 -4.046875 C 13.535156 -3.085938 13.40625 -2.257812 12.90625 -1.5625 Z M 12.90625 -1.5625 "/></g></g></g><g fill="#fffaeb" fill-opacity="0.4"><g transform="translate(323.421113, 57.916791)"><g><path d="M 37.25 -3.53125 C 37.476562 -2.53125 37.34375 -1.691406 36.84375 -1.015625 C 36.34375 -0.335938 35.675781 0.101562 34.84375 0.3125 C 34.019531 0.53125 33.226562 0.460938 32.46875 0.109375 C 31.71875 -0.234375 31.210938 -0.90625 30.953125 -1.90625 C 30.210938 -4.757812 29.414062 -7.628906 28.5625 -10.515625 C 27.71875 -13.410156 26.796875 -16.304688 25.796875 -19.203125 L 25.28125 -20.703125 C 24.894531 -21.742188 24.507812 -22.785156 24.125 -23.828125 C 23.738281 -24.867188 23.332031 -25.890625 22.90625 -26.890625 C 22.289062 -28.441406 21.679688 -29.617188 21.078125 -30.421875 C 20.484375 -31.234375 19.820312 -31.796875 19.09375 -32.109375 C 18.507812 -32.410156 18.023438 -32.289062 17.640625 -31.75 C 17.253906 -31.21875 16.832031 -30.117188 16.375 -28.453125 C 16.332031 -28.222656 16.269531 -27.992188 16.1875 -27.765625 C 16.113281 -27.535156 16.039062 -27.320312 15.96875 -27.125 C 15 -24.351562 14.070312 -21.578125 13.1875 -18.796875 C 13.144531 -18.640625 13.113281 -18.503906 13.09375 -18.390625 C 13.082031 -18.273438 13.035156 -18.160156 12.953125 -18.046875 L 23.25 -19.203125 C 24.332031 -19.316406 25.144531 -19.070312 25.6875 -18.46875 C 26.226562 -17.875 26.5 -17.15625 26.5 -16.3125 C 26.5 -15.46875 26.242188 -14.6875 25.734375 -13.96875 C 25.234375 -13.257812 24.484375 -12.84375 23.484375 -12.71875 L 10.8125 -11.390625 C 10.3125 -9.734375 9.8125 -8.082031 9.3125 -6.4375 C 8.8125 -4.800781 8.328125 -3.140625 7.859375 -1.453125 C 7.597656 -0.441406 7.070312 0.222656 6.28125 0.546875 C 5.488281 0.878906 4.6875 0.925781 3.875 0.6875 C 3.0625 0.457031 2.414062 0.0078125 1.9375 -0.65625 C 1.457031 -1.332031 1.367188 -2.175781 1.671875 -3.1875 C 2.710938 -6.882812 3.8125 -10.59375 4.96875 -14.3125 C 6.125 -18.03125 7.34375 -21.722656 8.625 -25.390625 C 8.925781 -26.359375 9.25 -27.46875 9.59375 -28.71875 C 9.945312 -29.96875 10.375 -31.226562 10.875 -32.5 C 11.375 -33.78125 12 -34.941406 12.75 -35.984375 C 13.5 -37.023438 14.429688 -37.804688 15.546875 -38.328125 C 16.671875 -38.847656 18.003906 -38.972656 19.546875 -38.703125 C 21.203125 -38.390625 22.628906 -37.738281 23.828125 -36.75 C 25.023438 -35.769531 26.035156 -34.601562 26.859375 -33.25 C 27.691406 -31.90625 28.40625 -30.5 29 -29.03125 C 29.601562 -27.570312 30.132812 -26.207031 30.59375 -24.9375 C 33.21875 -17.800781 35.4375 -10.664062 37.25 -3.53125 Z M 37.25 -3.53125 "/></g></g></g><g fill="#fffaeb" fill-opacity="1"><g transform="translate(0.960354, 57.916791)"><g><path d="M 16.140625 -40.4375 L 34.9375 -39.5625 C 35.976562 -39.519531 36.757812 -39.160156 37.28125 -38.484375 C 37.800781 -37.816406 38.050781 -37.054688 38.03125 -36.203125 C 38.007812 -35.359375 37.726562 -34.617188 37.1875 -33.984375 C 36.65625 -33.347656 35.867188 -33.050781 34.828125 -33.09375 C 32.628906 -33.207031 30.429688 -33.320312 28.234375 -33.4375 C 26.035156 -33.550781 23.816406 -33.628906 21.578125 -33.671875 C 21.691406 -23.328125 22.675781 -13.109375 24.53125 -3.015625 C 24.71875 -1.972656 24.539062 -1.113281 24 -0.4375 C 23.46875 0.238281 22.785156 0.679688 21.953125 0.890625 C 21.117188 1.109375 20.34375 1.03125 19.625 0.65625 C 18.914062 0.289062 18.46875 -0.410156 18.28125 -1.453125 C 16.269531 -12.128906 15.226562 -23.019531 15.15625 -34.125 C 13.5 -34.320312 11.878906 -34.378906 10.296875 -34.296875 C 8.710938 -34.222656 7.441406 -33.742188 6.484375 -32.859375 C 5.710938 -32.160156 4.898438 -31.859375 4.046875 -31.953125 C 3.203125 -32.054688 2.476562 -32.414062 1.875 -33.03125 C 1.28125 -33.644531 0.953125 -34.359375 0.890625 -35.171875 C 0.835938 -35.984375 1.195312 -36.734375 1.96875 -37.421875 C 3.3125 -38.691406 4.773438 -39.539062 6.359375 -39.96875 C 7.941406 -40.394531 9.570312 -40.597656 11.25 -40.578125 C 12.925781 -40.554688 14.554688 -40.507812 16.140625 -40.4375 Z M 16.140625 -40.4375 "/></g></g></g><g fill="#fffaeb" fill-opacity="1"><g transform="translate(57.307071, 57.916791)"><g><path d="M 37.25 -3.53125 C 37.476562 -2.53125 37.34375 -1.691406 36.84375 -1.015625 C 36.34375 -0.335938 35.675781 0.101562 34.84375 0.3125 C 34.019531 0.53125 33.226562 0.460938 32.46875 0.109375 C 31.71875 -0.234375 31.210938 -0.90625 30.953125 -1.90625 C 30.210938 -4.757812 29.414062 -7.628906 28.5625 -10.515625 C 27.71875 -13.410156 26.796875 -16.304688 25.796875 -19.203125 L 25.28125 -20.703125 C 24.894531 -21.742188 24.507812 -22.785156 24.125 -23.828125 C 23.738281 -24.867188 23.332031 -25.890625 22.90625 -26.890625 C 22.289062 -28.441406 21.679688 -29.617188 21.078125 -30.421875 C 20.484375 -31.234375 19.820312 -31.796875 19.09375 -32.109375 C 18.507812 -32.410156 18.023438 -32.289062 17.640625 -31.75 C 17.253906 -31.21875 16.832031 -30.117188 16.375 -28.453125 C 16.332031 -28.222656 16.269531 -27.992188 16.1875 -27.765625 C 16.113281 -27.535156 16.039062 -27.320312 15.96875 -27.125 C 15 -24.351562 14.070312 -21.578125 13.1875 -18.796875 C 13.144531 -18.640625 13.113281 -18.503906 13.09375 -18.390625 C 13.082031 -18.273438 13.035156 -18.160156 12.953125 -18.046875 L 23.25 -19.203125 C 24.332031 -19.316406 25.144531 -19.070312 25.6875 -18.46875 C 26.226562 -17.875 26.5 -17.15625 26.5 -16.3125 C 26.5 -15.46875 26.242188 -14.6875 25.734375 -13.96875 C 25.234375 -13.257812 24.484375 -12.84375 23.484375 -12.71875 L 10.8125 -11.390625 C 10.3125 -9.734375 9.8125 -8.082031 9.3125 -6.4375 C 8.8125 -4.800781 8.328125 -3.140625 7.859375 -1.453125 C 7.597656 -0.441406 7.070312 0.222656 6.28125 0.546875 C 5.488281 0.878906 4.6875 0.925781 3.875 0.6875 C 3.0625 0.457031 2.414062 0.0078125 1.9375 -0.65625 C 1.457031 -1.332031 1.367188 -2.175781 1.671875 -3.1875 C 2.710938 -6.882812 3.8125 -10.59375 4.96875 -14.3125 C 6.125 -18.03125 7.34375 -21.722656 8.625 -25.390625 C 8.925781 -26.359375 9.25 -27.46875 9.59375 -28.71875 C 9.945312 -29.96875 10.375 -31.226562 10.875 -32.5 C 11.375 -33.78125 12 -34.941406 12.75 -35.984375 C 13.5 -37.023438 14.429688 -37.804688 15.546875 -38.328125 C 16.671875 -38.847656 18.003906 -38.972656 19.546875 -38.703125 C 21.203125 -38.390625 22.628906 -37.738281 23.828125 -36.75 C 25.023438 -35.769531 26.035156 -34.601562 26.859375 -33.25 C 27.691406 -31.90625 28.40625 -30.5 29 -29.03125 C 29.601562 -27.570312 30.132812 -26.207031 30.59375 -24.9375 C 33.21875 -17.800781 35.4375 -10.664062 37.25 -3.53125 Z M 37.25 -3.53125 "/></g></g></g><g fill="#fffaeb" fill-opacity="1"><g transform="translate(113.480248, 57.916791)"><g><path d="M 32.328125 -9.609375 C 32.523438 -7.367188 32.195312 -5.34375 31.34375 -3.53125 C 30.5 -1.71875 29.296875 -0.175781 27.734375 1.09375 C 26.171875 2.375 24.425781 3.367188 22.5 4.078125 C 20.570312 4.785156 18.578125 5.175781 16.515625 5.25 C 14.453125 5.332031 12.515625 5.085938 10.703125 4.515625 C 9.546875 4.128906 8.84375 3.441406 8.59375 2.453125 C 8.34375 1.472656 8.425781 0.578125 8.84375 -0.234375 C 7.882812 -0.535156 7.269531 -1.25 7 -2.375 C 4.414062 -12.9375 2.582031 -23.5 1.5 -34.0625 C 1.382812 -35.101562 1.679688 -35.941406 2.390625 -36.578125 C 3.109375 -37.222656 4.007812 -37.445312 5.09375 -37.25 C 7.0625 -38.25 9.160156 -39.066406 11.390625 -39.703125 C 13.628906 -40.347656 15.882812 -40.398438 18.15625 -39.859375 C 20.207031 -39.359375 22.019531 -38.375 23.59375 -36.90625 C 25.175781 -35.4375 26.21875 -33.78125 26.71875 -31.9375 C 27.1875 -30.15625 27.140625 -28.378906 26.578125 -26.609375 C 26.015625 -24.835938 25.019531 -23.238281 23.59375 -21.8125 C 24.175781 -21.570312 24.660156 -21.320312 25.046875 -21.0625 C 27.171875 -19.78125 28.878906 -18.117188 30.171875 -16.078125 C 31.460938 -14.035156 32.179688 -11.878906 32.328125 -9.609375 Z M 15.90625 -33.671875 C 14.59375 -33.859375 13.289062 -33.726562 12 -33.28125 C 10.707031 -32.84375 9.445312 -32.296875 8.21875 -31.640625 C 8.40625 -30.328125 8.585938 -29.015625 8.765625 -27.703125 C 8.941406 -26.390625 9.125 -25.0625 9.3125 -23.71875 C 10.738281 -23.757812 12.132812 -23.84375 13.5 -23.96875 C 14.875 -24.101562 16.160156 -24.484375 17.359375 -25.109375 C 18.515625 -25.722656 19.378906 -26.5 19.953125 -27.4375 C 20.535156 -28.382812 20.691406 -29.300781 20.421875 -30.1875 C 20.222656 -31.082031 19.695312 -31.851562 18.84375 -32.5 C 18 -33.15625 17.019531 -33.546875 15.90625 -33.671875 Z M 12.90625 -1.5625 C 14.289062 -1.21875 15.769531 -1.113281 17.34375 -1.25 C 18.925781 -1.382812 20.394531 -1.773438 21.75 -2.421875 C 23.101562 -3.078125 24.179688 -3.992188 24.984375 -5.171875 C 25.796875 -6.347656 26.101562 -7.785156 25.90625 -9.484375 C 25.71875 -11.222656 25.117188 -12.628906 24.109375 -13.703125 C 23.109375 -14.785156 21.863281 -15.597656 20.375 -16.140625 C 18.894531 -16.679688 17.335938 -16.988281 15.703125 -17.0625 C 14.066406 -17.132812 12.492188 -17.019531 10.984375 -16.71875 C 10.796875 -16.71875 10.644531 -16.695312 10.53125 -16.65625 C 11.300781 -12.488281 12.222656 -8.285156 13.296875 -4.046875 C 13.535156 -3.085938 13.40625 -2.257812 12.90625 -1.5625 Z M 12.90625 -1.5625 "/></g></g></g><g fill="#fffaeb" fill-opacity="1"><g transform="translate(164.736135, 57.916791)"><g><path d="M 32.328125 -9.609375 C 32.523438 -7.367188 32.195312 -5.34375 31.34375 -3.53125 C 30.5 -1.71875 29.296875 -0.175781 27.734375 1.09375 C 26.171875 2.375 24.425781 3.367188 22.5 4.078125 C 20.570312 4.785156 18.578125 5.175781 16.515625 5.25 C 14.453125 5.332031 12.515625 5.085938 10.703125 4.515625 C 9.546875 4.128906 8.84375 3.441406 8.59375 2.453125 C 8.34375 1.472656 8.425781 0.578125 8.84375 -0.234375 C 7.882812 -0.535156 7.269531 -1.25 7 -2.375 C 4.414062 -12.9375 2.582031 -23.5 1.5 -34.0625 C 1.382812 -35.101562 1.679688 -35.941406 2.390625 -36.578125 C 3.109375 -37.222656 4.007812 -37.445312 5.09375 -37.25 C 7.0625 -38.25 9.160156 -39.066406 11.390625 -39.703125 C 13.628906 -40.347656 15.882812 -40.398438 18.15625 -39.859375 C 20.207031 -39.359375 22.019531 -38.375 23.59375 -36.90625 C 25.175781 -35.4375 26.21875 -33.78125 26.71875 -31.9375 C 27.1875 -30.15625 27.140625 -28.378906 26.578125 -26.609375 C 26.015625 -24.835938 25.019531 -23.238281 23.59375 -21.8125 C 24.175781 -21.570312 24.660156 -21.320312 25.046875 -21.0625 C 27.171875 -19.78125 28.878906 -18.117188 30.171875 -16.078125 C 31.460938 -14.035156 32.179688 -11.878906 32.328125 -9.609375 Z M 15.90625 -33.671875 C 14.59375 -33.859375 13.289062 -33.726562 12 -33.28125 C 10.707031 -32.84375 9.445312 -32.296875 8.21875 -31.640625 C 8.40625 -30.328125 8.585938 -29.015625 8.765625 -27.703125 C 8.941406 -26.390625 9.125 -25.0625 9.3125 -23.71875 C 10.738281 -23.757812 12.132812 -23.84375 13.5 -23.96875 C 14.875 -24.101562 16.160156 -24.484375 17.359375 -25.109375 C 18.515625 -25.722656 19.378906 -26.5 19.953125 -27.4375 C 20.535156 -28.382812 20.691406 -29.300781 20.421875 -30.1875 C 20.222656 -31.082031 19.695312 -31.851562 18.84375 -32.5 C 18 -33.15625 17.019531 -33.546875 15.90625 -33.671875 Z M 12.90625 -1.5625 C 14.289062 -1.21875 15.769531 -1.113281 17.34375 -1.25 C 18.925781 -1.382812 20.394531 -1.773438 21.75 -2.421875 C 23.101562 -3.078125 24.179688 -3.992188 24.984375 -5.171875 C 25.796875 -6.347656 26.101562 -7.785156 25.90625 -9.484375 C 25.71875 -11.222656 25.117188 -12.628906 24.109375 -13.703125 C 23.109375 -14.785156 21.863281 -15.597656 20.375 -16.140625 C 18.894531 -16.679688 17.335938 -16.988281 15.703125 -17.0625 C 14.066406 -17.132812 12.492188 -17.019531 10.984375 -16.71875 C 10.796875 -16.71875 10.644531 -16.695312 10.53125 -16.65625 C 11.300781 -12.488281 12.222656 -8.285156 13.296875 -4.046875 C 13.535156 -3.085938 13.40625 -2.257812 12.90625 -1.5625 Z M 12.90625 -1.5625 "/></g></g></g><g fill="#fffaeb" fill-opacity="1"><g transform="translate(215.992049, 57.916791)"><g><path d="M 37.25 -3.53125 C 37.476562 -2.53125 37.34375 -1.691406 36.84375 -1.015625 C 36.34375 -0.335938 35.675781 0.101562 34.84375 0.3125 C 34.019531 0.53125 33.226562 0.460938 32.46875 0.109375 C 31.71875 -0.234375 31.210938 -0.90625 30.953125 -1.90625 C 30.210938 -4.757812 29.414062 -7.628906 28.5625 -10.515625 C 27.71875 -13.410156 26.796875 -16.304688 25.796875 -19.203125 L 25.28125 -20.703125 C 24.894531 -21.742188 24.507812 -22.785156 24.125 -23.828125 C 23.738281 -24.867188 23.332031 -25.890625 22.90625 -26.890625 C 22.289062 -28.441406 21.679688 -29.617188 21.078125 -30.421875 C 20.484375 -31.234375 19.820312 -31.796875 19.09375 -32.109375 C 18.507812 -32.410156 18.023438 -32.289062 17.640625 -31.75 C 17.253906 -31.21875 16.832031 -30.117188 16.375 -28.453125 C 16.332031 -28.222656 16.269531 -27.992188 16.1875 -27.765625 C 16.113281 -27.535156 16.039062 -27.320312 15.96875 -27.125 C 15 -24.351562 14.070312 -21.578125 13.1875 -18.796875 C 13.144531 -18.640625 13.113281 -18.503906 13.09375 -18.390625 C 13.082031 -18.273438 13.035156 -18.160156 12.953125 -18.046875 L 23.25 -19.203125 C 24.332031 -19.316406 25.144531 -19.070312 25.6875 -18.46875 C 26.226562 -17.875 26.5 -17.15625 26.5 -16.3125 C 26.5 -15.46875 26.242188 -14.6875 25.734375 -13.96875 C 25.234375 -13.257812 24.484375 -12.84375 23.484375 -12.71875 L 10.8125 -11.390625 C 10.3125 -9.734375 9.8125 -8.082031 9.3125 -6.4375 C 8.8125 -4.800781 8.328125 -3.140625 7.859375 -1.453125 C 7.597656 -0.441406 7.070312 0.222656 6.28125 0.546875 C 5.488281 0.878906 4.6875 0.925781 3.875 0.6875 C 3.0625 0.457031 2.414062 0.0078125 1.9375 -0.65625 C 1.457031 -1.332031 1.367188 -2.175781 1.671875 -3.1875 C 2.710938 -6.882812 3.8125 -10.59375 4.96875 -14.3125 C 6.125 -18.03125 7.34375 -21.722656 8.625 -25.390625 C 8.925781 -26.359375 9.25 -27.46875 9.59375 -28.71875 C 9.945312 -29.96875 10.375 -31.226562 10.875 -32.5 C 11.375 -33.78125 12 -34.941406 12.75 -35.984375 C 13.5 -37.023438 14.429688 -37.804688 15.546875 -38.328125 C 16.671875 -38.847656 18.003906 -38.972656 19.546875 -38.703125 C 21.203125 -38.390625 22.628906 -37.738281 23.828125 -36.75 C 25.023438 -35.769531 26.035156 -34.601562 26.859375 -33.25 C 27.691406 -31.90625 28.40625 -30.5 29 -29.03125 C 29.601562 -27.570312 30.132812 -26.207031 30.59375 -24.9375 C 33.21875 -17.800781 35.4375 -10.664062 37.25 -3.53125 Z M 37.25 -3.53125 "/></g></g></g><g fill="#fffaeb" fill-opacity="1"><g transform="translate(272.165226, 57.916791)"><g><path d="M 32.328125 -9.609375 C 32.523438 -7.367188 32.195312 -5.34375 31.34375 -3.53125 C 30.5 -1.71875 29.296875 -0.175781 27.734375 1.09375 C 26.171875 2.375 24.425781 3.367188 22.5 4.078125 C 20.570312 4.785156 18.578125 5.175781 16.515625 5.25 C 14.453125 5.332031 12.515625 5.085938 10.703125 4.515625 C 9.546875 4.128906 8.84375 3.441406 8.59375 2.453125 C 8.34375 1.472656 8.425781 0.578125 8.84375 -0.234375 C 7.882812 -0.535156 7.269531 -1.25 7 -2.375 C 4.414062 -12.9375 2.582031 -23.5 1.5 -34.0625 C 1.382812 -35.101562 1.679688 -35.941406 2.390625 -36.578125 C 3.109375 -37.222656 4.007812 -37.445312 5.09375 -37.25 C 7.0625 -38.25 9.160156 -39.066406 11.390625 -39.703125 C 13.628906 -40.347656 15.882812 -40.398438 18.15625 -39.859375 C 20.207031 -39.359375 22.019531 -38.375 23.59375 -36.90625 C 25.175781 -35.4375 26.21875 -33.78125 26.71875 -31.9375 C 27.1875 -30.15625 27.140625 -28.378906 26.578125 -26.609375 C 26.015625 -24.835938 25.019531 -23.238281 23.59375 -21.8125 C 24.175781 -21.570312 24.660156 -21.320312 25.046875 -21.0625 C 27.171875 -19.78125 28.878906 -18.117188 30.171875 -16.078125 C 31.460938 -14.035156 32.179688 -11.878906 32.328125 -9.609375 Z M 15.90625 -33.671875 C 14.59375 -33.859375 13.289062 -33.726562 12 -33.28125 C 10.707031 -32.84375 9.445312 -32.296875 8.21875 -31.640625 C 8.40625 -30.328125 8.585938 -29.015625 8.765625 -27.703125 C 8.941406 -26.390625 9.125 -25.0625 9.3125 -23.71875 C 10.738281 -23.757812 12.132812 -23.84375 13.5 -23.96875 C 14.875 -24.101562 16.160156 -24.484375 17.359375 -25.109375 C 18.515625 -25.722656 19.378906 -26.5 19.953125 -27.4375 C 20.535156 -28.382812 20.691406 -29.300781 20.421875 -30.1875 C 20.222656 -31.082031 19.695312 -31.851562 18.84375 -32.5 C 18 -33.15625 17.019531 -33.546875 15.90625 -33.671875 Z M 12.90625 -1.5625 C 14.289062 -1.21875 15.769531 -1.113281 17.34375 -1.25 C 18.925781 -1.382812 20.394531 -1.773438 21.75 -2.421875 C 23.101562 -3.078125 24.179688 -3.992188 24.984375 -5.171875 C 25.796875 -6.347656 26.101562 -7.785156 25.90625 -9.484375 C 25.71875 -11.222656 25.117188 -12.628906 24.109375 -13.703125 C 23.109375 -14.785156 21.863281 -15.597656 20.375 -16.140625 C 18.894531 -16.679688 17.335938 -16.988281 15.703125 -17.0625 C 14.066406 -17.132812 12.492188 -17.019531 10.984375 -16.71875 C 10.796875 -16.71875 10.644531 -16.695312 10.53125 -16.65625 C 11.300781 -12.488281 12.222656 -8.285156 13.296875 -4.046875 C 13.535156 -3.085938 13.40625 -2.257812 12.90625 -1.5625 Z M 12.90625 -1.5625 "/></g></g></g><g fill="#fffaeb" fill-opacity="1"><g transform="translate(323.421113, 57.916791)"><g><path d="M 37.25 -3.53125 C 37.476562 -2.53125 37.34375 -1.691406 36.84375 -1.015625 C 36.34375 -0.335938 35.675781 0.101562 34.84375 0.3125 C 34.019531 0.53125 33.226562 0.460938 32.46875 0.109375 C 31.71875 -0.234375 31.210938 -0.90625 30.953125 -1.90625 C 30.210938 -4.757812 29.414062 -7.628906 28.5625 -10.515625 C 27.71875 -13.410156 26.796875 -16.304688 25.796875 -19.203125 L 25.28125 -20.703125 C 24.894531 -21.742188 24.507812 -22.785156 24.125 -23.828125 C 23.738281 -24.867188 23.332031 -25.890625 22.90625 -26.890625 C 22.289062 -28.441406 21.679688 -29.617188 21.078125 -30.421875 C 20.484375 -31.234375 19.820312 -31.796875 19.09375 -32.109375 C 18.507812 -32.410156 18.023438 -32.289062 17.640625 -31.75 C 17.253906 -31.21875 16.832031 -30.117188 16.375 -28.453125 C 16.332031 -28.222656 16.269531 -27.992188 16.1875 -27.765625 C 16.113281 -27.535156 16.039062 -27.320312 15.96875 -27.125 C 15 -24.351562 14.070312 -21.578125 13.1875 -18.796875 C 13.144531 -18.640625 13.113281 -18.503906 13.09375 -18.390625 C 13.082031 -18.273438 13.035156 -18.160156 12.953125 -18.046875 L 23.25 -19.203125 C 24.332031 -19.316406 25.144531 -19.070312 25.6875 -18.46875 C 26.226562 -17.875 26.5 -17.15625 26.5 -16.3125 C 26.5 -15.46875 26.242188 -14.6875 25.734375 -13.96875 C 25.234375 -13.257812 24.484375 -12.84375 23.484375 -12.71875 L 10.8125 -11.390625 C 10.3125 -9.734375 9.8125 -8.082031 9.3125 -6.4375 C 8.8125 -4.800781 8.328125 -3.140625 7.859375 -1.453125 C 7.597656 -0.441406 7.070312 0.222656 6.28125 0.546875 C 5.488281 0.878906 4.6875 0.925781 3.875 0.6875 C 3.0625 0.457031 2.414062 0.0078125 1.9375 -0.65625 C 1.457031 -1.332031 1.367188 -2.175781 1.671875 -3.1875 C 2.710938 -6.882812 3.8125 -10.59375 4.96875 -14.3125 C 6.125 -18.03125 7.34375 -21.722656 8.625 -25.390625 C 8.925781 -26.359375 9.25 -27.46875 9.59375 -28.71875 C 9.945312 -29.96875 10.375 -31.226562 10.875 -32.5 C 11.375 -33.78125 12 -34.941406 12.75 -35.984375 C 13.5 -37.023438 14.429688 -37.804688 15.546875 -38.328125 C 16.671875 -38.847656 18.003906 -38.972656 19.546875 -38.703125 C 21.203125 -38.390625 22.628906 -37.738281 23.828125 -36.75 C 25.023438 -35.769531 26.035156 -34.601562 26.859375 -33.25 C 27.691406 -31.90625 28.40625 -30.5 29 -29.03125 C 29.601562 -27.570312 30.132812 -26.207031 30.59375 -24.9375 C 33.21875 -17.800781 35.4375 -10.664062 37.25 -3.53125 Z M 37.25 -3.53125 "/></g></g></g></g></g></g></g><g fill="#fffaeb" fill-opacity="1"><g transform="translate(286.820037, 410.889965)"><g><path d="M 51.75 -68.34375 C 44.8125 -64.59375 37.3125 -60.890625 29.25 -57.234375 C 21.1875 -53.578125 12.84375 -51.75 4.21875 -51.75 C -0.09375 -51.75 -4.453125 -52.40625 -8.859375 -53.71875 C -13.265625 -55.03125 -17.625 -57.1875 -21.9375 -60.1875 C -18.375 -61.5 -14.53125 -63.375 -10.40625 -65.8125 C -6.28125 -68.25 -1.96875 -70.875 2.53125 -73.6875 C 10.21875 -78.5625 18.1875 -83.203125 26.4375 -87.609375 C 34.6875 -92.015625 42.75 -94.21875 50.625 -94.21875 C 54.5625 -94.21875 58.359375 -93.515625 62.015625 -92.109375 C 65.671875 -90.703125 69.1875 -88.3125 72.5625 -84.9375 L 76.5 -81.28125 C 77.0625 -80.71875 77.671875 -80.0625 78.328125 -79.3125 C 78.984375 -78.5625 79.5 -77.71875 79.875 -76.78125 C 78.5625 -77.53125 77.0625 -77.90625 75.375 -77.90625 C 72.375 -77.90625 68.90625 -77.015625 64.96875 -75.234375 C 61.03125 -73.453125 57.375 -71.625 54 -69.75 Z M 51.75 -68.34375 "/></g></g></g><g fill="#fffaeb" fill-opacity="1"><g transform="translate(120.601295, 492.452461)"><g><path d="M 293.90625 -4.21875 L 315 -4.21875 L 315 0 L 80.4375 0 C 72.75 0 64.78125 -1.265625 56.53125 -3.796875 C 48.28125 -6.328125 40.546875 -10.03125 33.328125 -14.90625 C 26.109375 -19.78125 20.296875 -25.828125 15.890625 -33.046875 C 11.484375 -40.265625 9.28125 -48.65625 9.28125 -58.21875 C 9.28125 -66.65625 11.203125 -74.25 15.046875 -81 C 18.890625 -87.75 24.1875 -93.046875 30.9375 -96.890625 C 37.6875 -100.734375 45.1875 -102.65625 53.4375 -102.65625 C 62.8125 -102.65625 72.09375 -100.6875 81.28125 -96.75 C 93.09375 -91.6875 102.75 -86.671875 110.25 -81.703125 C 117.75 -76.734375 123.5625 -73.125 127.6875 -70.875 C 120.9375 -64.3125 114.75 -59.8125 109.125 -57.375 C 103.5 -54.9375 98.34375 -53.71875 93.65625 -53.71875 C 87.28125 -53.71875 81.84375 -55.125 77.34375 -57.9375 C 72.84375 -60.75 69.09375 -63.09375 66.09375 -64.96875 C 63.65625 -66.46875 60.609375 -68.25 56.953125 -70.3125 C 53.296875 -72.375 49.40625 -74.53125 45.28125 -76.78125 C 41.90625 -78.46875 38.53125 -79.3125 35.15625 -79.3125 C 29.90625 -79.3125 25.125 -77.390625 20.8125 -73.546875 C 16.5 -69.703125 14.34375 -64.6875 14.34375 -58.5 C 14.34375 -49.6875 16.921875 -41.109375 22.078125 -32.765625 C 27.234375 -24.421875 34.359375 -17.578125 43.453125 -12.234375 C 52.546875 -6.890625 62.8125 -4.21875 74.25 -4.21875 L 165.65625 -4.21875 C 178.78125 -4.59375 185.34375 -10.6875 185.34375 -22.5 L 185.34375 -75.65625 C 185.34375 -78.28125 186.140625 -81.421875 187.734375 -85.078125 C 189.328125 -88.734375 191.71875 -92.15625 194.90625 -95.34375 C 198.09375 -98.53125 202.125 -100.6875 207 -101.8125 C 208.5 -102.1875 211.5 -102.515625 216 -102.796875 C 220.5 -103.078125 225.75 -103.3125 231.75 -103.5 C 237.75 -103.6875 243.703125 -103.875 249.609375 -104.0625 C 255.515625 -104.25 260.71875 -104.390625 265.21875 -104.484375 C 269.71875 -104.578125 272.71875 -104.625 274.21875 -104.625 L 274.21875 -19.40625 C 274.21875 -13.96875 276.328125 -10.078125 280.546875 -7.734375 C 284.765625 -5.390625 289.21875 -4.21875 293.90625 -4.21875 Z M 173.8125 45 C 173.8125 52.125 171.421875 58.03125 166.640625 62.71875 C 161.859375 67.40625 155.90625 69.75 148.78125 69.75 C 141.84375 69.75 135.984375 67.40625 131.203125 62.71875 C 126.421875 58.03125 124.03125 52.125 124.03125 45 C 124.03125 37.875 126.421875 32.015625 131.203125 27.421875 C 135.984375 22.828125 141.84375 20.53125 148.78125 20.53125 C 155.90625 20.53125 161.859375 22.828125 166.640625 27.421875 C 171.421875 32.015625 173.8125 37.875 173.8125 45 Z M 173.8125 45 "/></g></g></g><g fill="#fffaeb" fill-opacity="1"><g transform="translate(483.694705, 421.577464)"><g><path d="M 81.5625 -126.84375 C 74.8125 -122.90625 67.171875 -118.875 58.640625 -114.75 C 50.109375 -110.625 41.0625 -108.5625 31.5 -108.5625 C 26.625 -108.5625 21.65625 -109.3125 16.59375 -110.8125 C 11.53125 -112.3125 6.46875 -114.84375 1.40625 -118.40625 C 4.96875 -119.71875 8.71875 -121.5 12.65625 -123.75 C 16.59375 -126 20.34375 -128.34375 23.90625 -130.78125 C 36.84375 -139.03125 46.96875 -144.703125 54.28125 -147.796875 C 61.59375 -150.890625 68.15625 -152.4375 73.96875 -152.4375 C 77.71875 -152.4375 81.46875 -151.734375 85.21875 -150.328125 C 88.96875 -148.921875 92.4375 -146.53125 95.625 -143.15625 C 97.125 -141.84375 98.53125 -140.578125 99.84375 -139.359375 C 101.15625 -138.140625 102.28125 -136.59375 103.21875 -134.71875 C 102.46875 -135.28125 101.53125 -135.5625 100.40625 -135.5625 C 98.15625 -135.5625 95.4375 -134.71875 92.25 -133.03125 C 89.0625 -131.34375 85.5 -129.28125 81.5625 -126.84375 Z M 98.71875 -88.03125 C 98.71875 -80.34375 95.953125 -75.046875 90.421875 -72.140625 C 84.890625 -69.234375 78.84375 -67.78125 72.28125 -67.78125 L 18.84375 -67.78125 C 15.28125 -67.78125 12.234375 -69.09375 9.703125 -71.71875 C 7.171875 -74.34375 5.90625 -77.4375 5.90625 -81 L 5.90625 -84.09375 C 5.90625 -85.03125 6.09375 -86.4375 6.46875 -88.3125 C 6.84375 -90.1875 7.828125 -92.203125 9.421875 -94.359375 C 11.015625 -96.515625 13.78125 -98.34375 17.71875 -99.84375 C 21.65625 -101.34375 27.09375 -102.09375 34.03125 -102.09375 L 34.03125 -88.03125 C 34.03125 -81.84375 31.78125 -77.0625 27.28125 -73.6875 L 28.96875 -73.6875 C 34.78125 -73.6875 37.6875 -76.40625 37.6875 -81.84375 L 37.6875 -97.3125 C 37.6875 -99 38.4375 -100.453125 39.9375 -101.671875 C 41.4375 -102.890625 43.21875 -103.78125 45.28125 -104.34375 C 47.15625 -104.71875 49.5 -105 52.3125 -105.1875 C 55.125 -105.375 57.84375 -105.5625 60.46875 -105.75 C 63.09375 -105.9375 64.875 -106.03125 65.8125 -106.03125 L 65.8125 -88.03125 C 65.8125 -81.84375 63.65625 -77.0625 59.34375 -73.6875 L 61.59375 -73.6875 C 67.59375 -73.6875 70.59375 -76.40625 70.59375 -81.84375 L 70.59375 -105.1875 C 70.59375 -106.875 71.296875 -108.328125 72.703125 -109.546875 C 74.109375 -110.765625 75.84375 -111.65625 77.90625 -112.21875 C 79.78125 -112.59375 82.125 -112.921875 84.9375 -113.203125 C 87.75 -113.484375 90.46875 -113.671875 93.09375 -113.765625 C 95.71875 -113.859375 97.59375 -113.90625 98.71875 -113.90625 Z M 98.71875 -88.03125 "/></g></g></g><g fill="#fffaeb" fill-opacity="1"><g transform="translate(432.507208, 492.452461)"><g><path d="M 158.34375 -3.9375 L 179.4375 -3.9375 L 179.4375 0 L -2.53125 0 L -2.53125 -3.9375 L 30.09375 -3.9375 C 43.21875 -4.125 49.78125 -10.3125 49.78125 -22.5 L 49.78125 -66.375 C 49.78125 -69.1875 50.578125 -72.421875 52.171875 -76.078125 C 53.765625 -79.734375 56.203125 -83.109375 59.484375 -86.203125 C 62.765625 -89.296875 66.75 -91.40625 71.4375 -92.53125 C 72.9375 -92.90625 76.171875 -93.28125 81.140625 -93.65625 C 86.109375 -94.03125 91.828125 -94.3125 98.296875 -94.5 C 104.765625 -94.6875 111.046875 -94.875 117.140625 -95.0625 C 123.234375 -95.25 128.34375 -95.390625 132.46875 -95.484375 C 136.59375 -95.578125 138.65625 -95.625 138.65625 -95.625 L 138.65625 -19.40625 C 138.65625 -13.96875 140.765625 -10.03125 144.984375 -7.59375 C 149.203125 -5.15625 153.65625 -3.9375 158.34375 -3.9375 Z M 97.03125 48.9375 C 97.03125 55.875 94.640625 61.734375 89.859375 66.515625 C 85.078125 71.296875 79.125 73.6875 72 73.6875 C 65.0625 73.6875 59.15625 71.296875 54.28125 66.515625 C 49.40625 61.734375 46.96875 55.875 46.96875 48.9375 C 46.96875 41.8125 49.40625 35.90625 54.28125 31.21875 C 59.15625 26.53125 65.0625 24.1875 72 24.1875 C 79.125 24.1875 85.078125 26.53125 89.859375 31.21875 C 94.640625 35.90625 97.03125 41.8125 97.03125 48.9375 Z M 97.03125 48.9375 "/></g></g></g><g fill="#fffaeb" fill-opacity="1"><g transform="translate(704.194559, 347.889968)"><g><path d="M 51.75 -68.34375 C 44.8125 -64.59375 37.3125 -60.890625 29.25 -57.234375 C 21.1875 -53.578125 12.84375 -51.75 4.21875 -51.75 C -0.09375 -51.75 -4.453125 -52.40625 -8.859375 -53.71875 C -13.265625 -55.03125 -17.625 -57.1875 -21.9375 -60.1875 C -18.375 -61.5 -14.53125 -63.375 -10.40625 -65.8125 C -6.28125 -68.25 -1.96875 -70.875 2.53125 -73.6875 C 10.21875 -78.5625 18.1875 -83.203125 26.4375 -87.609375 C 34.6875 -92.015625 42.75 -94.21875 50.625 -94.21875 C 54.5625 -94.21875 58.359375 -93.515625 62.015625 -92.109375 C 65.671875 -90.703125 69.1875 -88.3125 72.5625 -84.9375 L 76.5 -81.28125 C 77.0625 -80.71875 77.671875 -80.0625 78.328125 -79.3125 C 78.984375 -78.5625 79.5 -77.71875 79.875 -76.78125 C 78.5625 -77.53125 77.0625 -77.90625 75.375 -77.90625 C 72.375 -77.90625 68.90625 -77.015625 64.96875 -75.234375 C 61.03125 -73.453125 57.375 -71.625 54 -69.75 Z M 51.75 -68.34375 "/></g></g></g><g fill="#fffaeb" fill-opacity="1"><g transform="translate(609.132064, 492.452461)"><g><path d="M 266.625 -39.09375 C 266.625 -31.96875 264.140625 -25.40625 259.171875 -19.40625 C 254.203125 -13.40625 248.015625 -8.671875 240.609375 -5.203125 C 233.203125 -1.734375 225.84375 0 218.53125 0 L -2.25 0 L -2.25 -4.21875 L 25.03125 -4.21875 L 25.03125 -142.875 C 25.03125 -145.6875 25.828125 -148.96875 27.421875 -152.71875 C 29.015625 -156.46875 31.40625 -159.9375 34.59375 -163.125 C 37.78125 -166.3125 41.8125 -168.375 46.6875 -169.3125 C 48.1875 -169.6875 51.1875 -170.015625 55.6875 -170.296875 C 60.1875 -170.578125 65.390625 -170.8125 71.296875 -171 C 77.203125 -171.1875 83.15625 -171.328125 89.15625 -171.421875 C 95.15625 -171.515625 100.40625 -171.609375 104.90625 -171.703125 C 109.40625 -171.796875 112.3125 -171.84375 113.625 -171.84375 L 113.625 -78.1875 C 113.625 -78.1875 114.46875 -79.40625 116.15625 -81.84375 C 117.84375 -84.28125 120.75 -87.046875 124.875 -90.140625 C 129 -93.234375 134.8125 -96 142.3125 -98.4375 C 149.8125 -100.875 159.28125 -102.09375 170.71875 -102.09375 C 190.59375 -102.09375 206.671875 -100.734375 218.953125 -98.015625 C 231.234375 -95.296875 240.703125 -91.6875 247.359375 -87.1875 C 254.015625 -82.6875 258.703125 -77.671875 261.421875 -72.140625 C 264.140625 -66.609375 265.6875 -60.984375 266.0625 -55.265625 C 266.4375 -49.546875 266.625 -44.15625 266.625 -39.09375 Z M 113.625 -51.75 L 113.625 -3.9375 L 158.34375 -3.9375 C 171.46875 -3.9375 178.03125 -11.25 178.03125 -25.875 L 178.03125 -62.71875 C 178.03125 -73.78125 175.03125 -81.84375 169.03125 -86.90625 C 163.03125 -91.96875 156.1875 -94.5 148.5 -94.5 C 137.0625 -94.5 128.390625 -90.5625 122.484375 -82.6875 C 116.578125 -74.8125 113.625 -64.5 113.625 -51.75 Z M 113.625 -51.75 "/></g></g></g></svg>